<?xml version="1.0" encoding="UTF-8" standalone="no"?>
<!-- Created with Inkscape (http://www.inkscape.org/) -->

<svg
   width="195.68628mm"
   height="149.07118mm"
   viewBox="0 0 195.68628 149.07118"
   version="1.1"
   id="svg1"
   xml:space="preserve"
   xmlns="http://www.w3.org/2000/svg"
   xmlns:svg="http://www.w3.org/2000/svg"><defs
     id="defs1" /><g
     id="layer1"
     transform="translate(-7.1568604,-73.964409)"><path
       id="rect9"
       style="fill:#232629;fill-opacity:1;stroke:none;stroke-width:0.49116;stroke-linecap:square;stroke-opacity:0.352113;paint-order:markers stroke fill"
       d="m 64.494375,144.71558 c 6.127556,-1.31744 12.255111,-1.46138 18.382667,-1.68081 0.933175,-0.0334 1.746948,0.59514 1.831972,1.52503 l 0.360474,3.94245 c 0.08502,0.92989 -0.595135,1.74695 -1.525027,1.83198 l -18.382667,1.6808 c -0.92989,0.085 -1.74695,-0.59514 -1.831973,-1.52503 l -0.360475,-3.94245 c -0.08502,-0.92989 0.612122,-1.6357 1.525029,-1.83197 z" /><path
       id="rect9-9"
       style="fill:#232629;fill-opacity:1;stroke:none;stroke-width:0.49116;stroke-linecap:square;stroke-opacity:0.352113;paint-order:markers stroke fill"
       d="m 145.50542,144.71558 c -6.12756,-1.31744 -12.25511,-1.46138 -18.38267,-1.68081 -0.93317,-0.0334 -1.74694,0.59514 -1.83197,1.52503 l -0.36047,3.94245 c -0.085,0.92989 0.59513,1.74695 1.52502,1.83198 l 18.38267,1.6808 c 0.92989,0.085 1.74695,-0.59514 1.83197,-1.52503 l 0.36048,-3.94245 c 0.085,-0.92989 -0.61212,-1.6357 -1.52503,-1.83197 z" /><path
       id="rect10"
       style="fill:#3b4146;fill-opacity:1;stroke:none;stroke-width:1.57261;stroke-linecap:square;stroke-opacity:0.211886;paint-order:markers stroke fill"
       d="m 83.066711,145.41733 c -5.857188,-0.0606 -18.607655,1.36325 -21.259684,2.8944 -3.264036,1.88449 -16.32458,47.01554 -10.746631,58.02072 5.577957,11.00517 13.529281,10.67404 16.459978,6.89519 2.930697,-3.77885 10.978408,-23.96894 13.093774,-21.85358 3.337678,3.33768 4.258097,3.65921 7.855338,3.65921 3.59723,0 6.58306,0.30798 8.80411,-1.91306 h 7.726144 7.72666 c 2.22105,2.22104 5.20688,1.91306 8.80412,1.91306 3.59723,0 4.51766,-0.32153 7.85533,-3.65921 2.11536,-2.11536 10.16308,18.07473 13.09378,21.85358 2.93069,3.77885 10.88202,4.10998 16.45997,-6.89519 5.57796,-11.00518 -7.48259,-56.13623 -10.74663,-58.02072 -3.26403,-1.88449 -21.82525,-3.60668 -24.00473,-2.59829 -2.17949,1.00839 -2.5304,2.03521 -3.65714,4.18321 -3.46897,0.29828 -5.48984,0.60823 -15.53136,0.60823 -10.041524,0 -12.061864,-0.30995 -15.530834,-0.60823 -1.12675,-2.148 -1.47765,-3.17482 -3.657142,-4.18321 -0.408655,-0.18907 -1.393394,-0.28211 -2.745053,-0.29611 z" /><g
       id="g27"><circle
         style="fill:#444b4e;fill-opacity:1;stroke:none;stroke-width:0.622549;stroke-linecap:square;stroke-dasharray:none;stroke-opacity:0.352113;paint-order:markers stroke fill"
         id="path15-4"
         cx="89.671204"
         cy="181.57031"
         r="10.925413" /><circle
         style="fill:#444b4e;fill-opacity:1;stroke:none;stroke-width:0.481184;stroke-linecap:square;stroke-dasharray:none;stroke-opacity:1;paint-order:normal"
         id="path14-6-7-2-6"
         cx="120.21329"
         cy="183.34857"
         r="9.8404751" /><circle
         style="fill:#444b4e;fill-opacity:1;stroke:none;stroke-width:0.481184;stroke-linecap:square;stroke-dasharray:none;stroke-opacity:1;paint-order:normal"
         id="path14-6-7-2"
         cx="73.158951"
         cy="163.40569"
         r="9.8404751" /><rect
         style="fill:#444b4e;fill-opacity:1;stroke:none;stroke-width:1.49811;stroke-linecap:square;stroke-dasharray:none;stroke-opacity:1;paint-order:normal"
         id="rect22"
         width="25.431942"
         height="25.431942"
         x="-33.007843"
         y="198.36089"
         rx="7.6160312"
         ry="7.6160312"
         transform="rotate(-45)" /></g><g
       id="g25"
       transform="translate(1.2017341,0.60086705)"><rect
         style="fill:#232629;fill-opacity:1;stroke-width:3.31427;stroke-linecap:square;stroke-opacity:0.211886;paint-order:markers stroke fill"
         id="rect2-5-2"
         width="6.0346632"
         height="17.86771"
         x="85.452133"
         y="172.0356"
         rx="0.56215572"
         ry="0.56215572" /><rect
         style="fill:#232629;fill-opacity:1;stroke-width:3.31427;stroke-linecap:square;stroke-opacity:0.211886;paint-order:markers stroke fill"
         id="rect2-5-6-8"
         width="6.0346632"
         height="17.86771"
         x="177.95212"
         y="-97.403313"
         rx="0.56215572"
         ry="0.56215572"
         transform="rotate(90)" /><rect
         style="fill:#222425;fill-opacity:1;stroke:#2c3132;stroke-width:0.514012;stroke-linecap:square;stroke-dasharray:none;stroke-opacity:1;paint-order:markers stroke fill"
         id="rect3-9"
         width="4.5810685"
         height="4.5810661"
         x="86.17894"
         y="178.67891"
         rx="0.194665"
         ry="0.194665" /><circle
         style="fill:#2c3132;fill-opacity:1;stroke:none;stroke-width:0.529167;stroke-linecap:square;stroke-dasharray:none;stroke-opacity:1;paint-order:markers stroke fill"
         id="path6-5"
         cx="88.469467"
         cy="180.96944"
         r="0.46497273" /><path
         style="color:#000000;fill:#abb3ba;fill-opacity:1;stroke-width:0.773046;stroke-linecap:square;-inkscape-stroke:none;paint-order:markers stroke fill"
         d="m 90.366736,176.06318 h -3.79454 l 1.89727,-3.32006 z"
         id="path5-9" /><path
         style="color:#000000;fill:#abb3ba;fill-opacity:1;stroke-width:0.70824;stroke-linecap:square;-inkscape-stroke:none;paint-order:markers stroke fill"
         d="m 90.207686,185.46442 h -3.47644 l 1.73822,3.04173 z"
         id="path5-7-8" /><path
         style="color:#000000;fill:#abb3ba;fill-opacity:1;stroke-width:0.773046;stroke-linecap:square;-inkscape-stroke:none;paint-order:markers stroke fill"
         d="m 93.375726,179.07217 v 3.79455 l 3.32006,-1.89727 z"
         id="path5-2-5" /><path
         style="color:#000000;fill:#abb3ba;fill-opacity:1;stroke-width:0.773046;stroke-linecap:square;-inkscape-stroke:none;paint-order:markers stroke fill"
         d="m 83.563191,179.07216 v 3.79456 l -3.320059,-1.89729 z"
         id="path5-2-7-7" /></g><rect
       style="fill:#232629;fill-opacity:1;stroke:#444b4e;stroke-width:1.75955;stroke-linecap:square;stroke-dasharray:none;stroke-opacity:1;paint-order:markers stroke fill"
       id="rect7-7-8-9"
       width="4.773469"
       height="3.6823869"
       x="-107.06405"
       y="169.38301"
       rx="0.69136292"
       ry="1.0606138"
       transform="scale(-1,1)" /><rect
       style="fill:#232629;fill-opacity:1;stroke:#444b4e;stroke-width:1.75955;stroke-linecap:square;stroke-dasharray:none;stroke-opacity:1;paint-order:markers stroke fill"
       id="rect14"
       width="6.7380486"
       height="3.1448991"
       x="92.232498"
       y="162.31435"
       rx="0.96386331"
       ry="0.72790676" /><rect
       style="fill:#232629;fill-opacity:1;stroke:#444b4e;stroke-width:1.75955;stroke-linecap:square;stroke-dasharray:none;stroke-opacity:1;paint-order:markers stroke fill"
       id="rect14-6"
       width="6.7380486"
       height="3.1448991"
       x="-117.12213"
       y="162.31435"
       rx="0.96386331"
       ry="0.72790676"
       transform="scale(-1,1)" /><circle
       style="fill:#232629;fill-opacity:1;stroke:none;stroke-width:0.363414;stroke-linecap:square;stroke-dasharray:none;stroke-opacity:0.352113;paint-order:markers stroke fill"
       id="path14-6"
       cx="120.21329"
       cy="183.34857"
       r="7.4277868" /><circle
       style="fill:#232629;fill-opacity:1;stroke:none;stroke-width:0.363414;stroke-linecap:square;stroke-dasharray:none;stroke-opacity:1;paint-order:markers stroke fill"
       id="path14-6-3"
       cx="73.158951"
       cy="163.40569"
       r="7.4277868" /><circle
       style="fill:#232629;fill-opacity:1;stroke:#000000;stroke-width:0.203261;stroke-linecap:square;stroke-dasharray:none;stroke-opacity:0.352113;paint-order:markers stroke fill"
       id="path14-1-3-8-6"
       cx="126.3018"
       cy="163.60239"
       r="4.1544275" /><circle
       style="fill:#232629;fill-opacity:1;stroke:#000000;stroke-width:0.203261;stroke-linecap:square;stroke-dasharray:none;stroke-opacity:0.352113;paint-order:markers stroke fill"
       id="path14-1-3"
       cx="143.50888"
       cy="163.60239"
       r="4.1544275" /><circle
       style="fill:#232629;fill-opacity:1;stroke:#000000;stroke-width:0.203261;stroke-linecap:square;stroke-dasharray:none;stroke-opacity:0.352113;paint-order:markers stroke fill"
       id="path14-1"
       cx="134.90535"
       cy="156.00113"
       r="4.1544275" /><circle
       style="fill:#232629;fill-opacity:1;stroke:#000000;stroke-width:0.203261;stroke-linecap:square;stroke-dasharray:none;stroke-opacity:0.352113;paint-order:markers stroke fill"
       id="path14-1-3-8"
       cx="134.90535"
       cy="171.20364"
       r="4.1544275" /><path
       id="rect7-7-9"
       style="fill:#232629;fill-opacity:1;stroke:none;stroke-width:0.238237;stroke-linecap:square;stroke-dasharray:none;stroke-opacity:1;paint-order:markers stroke fill"
       d="m 122.58054,123.34499 c -0.68219,0.0235 -1.22129,0.34591 -1.20831,0.72262 l 0.0345,1.0009 c 0.0131,0.37669 0.57297,0.66071 1.25516,0.6372 l 6.03896,-0.20811 c 0.68219,-0.0235 1.2213,-0.34542 1.20831,-0.72211 l -0.0345,-1.00089 c -0.0131,-0.37671 -0.573,-0.66124 -1.25519,-0.63774 z m 17.54355,-0.6046 c -0.68219,0.0235 -1.22077,0.3459 -1.20778,0.72261 l 0.0345,1.00089 c 0.0131,0.37669 0.57246,0.66073 1.25465,0.63722 l 6.03946,-0.20813 c 0.6822,-0.0235 1.22131,-0.34541 1.20834,-0.7221 l -0.0345,-1.0009 c -0.0131,-0.37671 -0.573,-0.66124 -1.2552,-0.63773 z m -8.76777,0.42574 c -0.68221,0.0235 -1.22078,0.34591 -1.20781,0.72261 l 0.0345,1.00089 c 0.0131,0.3767 0.57248,0.66125 1.25468,0.63774 l 6.03946,-0.20814 c 0.6822,-0.0235 1.22129,-0.34591 1.20831,-0.72261 l -0.0345,-1.0009 c -0.0131,-0.3767 -0.57299,-0.66124 -1.25519,-0.63772 z" /><path
       id="rect27"
       style="fill:#232629;stroke-width:2;stroke-linecap:square;paint-order:markers stroke fill"
       d="m 112.50237,121.59389 c -0.60695,0 -1.09554,0.36897 -1.09554,0.82734 v 1.91978 c 0,0.45837 0.48859,0.82734 1.09554,0.82734 h 5.46788 c 0.60695,0 1.09554,-0.36897 1.09554,-0.82734 v -1.91978 c 0,-0.45837 -0.48859,-0.82734 -1.09554,-0.82734 z m -9.5095,0.12351 c -0.43536,0 -0.78548,0.53774 -0.78548,1.20561 v 1.08779 c 0,0.66787 0.35012,1.20561 0.78548,1.20561 h 3.85455 c 0.43536,0 0.78548,-0.53774 0.78548,-1.20561 v -1.08779 c 0,-0.66787 -0.35012,-1.20561 -0.78548,-1.20561 z" /><path
       id="rect12"
       style="fill:#232629;fill-opacity:1;stroke-width:0.602313;stroke-linecap:square;paint-order:markers stroke fill"
       d="m 84.102035,123.10684 c -0.60636,0 -0.569475,0.25121 -0.569475,1.26917 v 0.28164 c 0,0.75481 0.489197,1.40659 1.094507,1.36219 l 3.679362,-0.26975 h 0.494544 c 0.12121,0.30822 0.547357,0.53537 1.05885,0.53537 h 3.922758 c 0.511492,0 0.93764,-0.22715 1.05885,-0.53537 h 0.822689 l 3.678845,0.26975 c 0.606355,0 1.094505,-0.60738 1.094505,-1.36219 v -0.28164 c 0,-1.12632 -0.0944,-1.26917 -0.700731,-1.26917 H 95.66412 88.306429 Z" /><path
       id="rect16"
       style="fill:#232629;fill-opacity:1;stroke:none;stroke-width:0.543075;stroke-linecap:square;stroke-dasharray:none;stroke-opacity:0.352113;paint-order:markers stroke fill"
       d="M 73.033976 120.9202 C 72.650543 120.9202 72.342029 121.21527 72.342029 121.58217 L 72.342029 125.97932 L 69.256429 125.97932 C 68.838676 125.97932 68.501953 126.33452 68.501953 126.77566 L 68.501953 127.76216 C 68.501953 128.2033 68.993298 129.48919 70.315796 129.48919 L 82.058232 129.48919 C 83.38073 129.48919 83.872074 128.2033 83.872074 127.76216 L 83.872074 126.77566 C 83.872074 126.33452 83.535352 125.97932 83.117599 125.97932 L 79.551408 125.97932 L 79.551408 121.58217 C 79.551408 121.21527 79.242894 120.9202 78.85946 120.9202 L 73.033976 120.9202 z " /><path
       id="rect10-5"
       style="fill:#3b4146;fill-opacity:1;stroke-width:3.23908;stroke-linecap:square;stroke-dasharray:none;stroke-opacity:0.211886;paint-order:markers stroke fill"
       d="m 60.174922,81.391293 c -2.789308,-0.02889 -6.271178,1.32654 -9.02187,5.131178 -4.401102,6.087427 3.038343,32.440499 8.479388,35.581899 2.720528,1.57071 10.285411,2.07222 19.06415,2.18102 1.097342,0.0136 2.213651,-0.002 3.341836,-0.0332 1.128184,-0.0315 2.268244,-0.0792 3.41309,-0.13036 2.28969,-0.10236 4.59852,-0.21868 6.869763,-0.24733 2.271243,-0.0286 4.504898,-0.0607 6.64424,-0.0857 2.139341,-0.0249 4.184371,-0.0427 6.078361,-0.0427 1.89399,0 3.93902,0.0178 6.07836,0.0427 2.13934,0.0249 4.37299,0.057 6.64423,0.0857 1.13562,0.0143 2.28064,0.0506 3.42797,0.096 1.14732,0.0455 2.29695,0.10013 3.4418,0.15131 2.28969,0.10235 4.56023,0.19074 6.75492,0.16353 8.77874,-0.10884 16.34362,-0.61031 19.06416,-2.18102 5.44104,-3.14139 12.88048,-29.494472 8.47938,-35.581899 -4.40111,-6.087421 -10.67452,-5.904492 -12.9869,-3.814248 -2.31237,2.090237 -8.81239,14.194307 -10.33142,14.601328 -1.51902,0.40702 -21.43598,-1.433968 -30.5725,-1.433968 -9.136527,0 -29.05349,1.840988 -30.572512,1.433968 -1.51902,-0.407021 -8.019049,-12.511091 -10.33142,-14.601328 -0.867139,-0.783842 -2.291441,-1.299595 -3.965026,-1.31693 z" /><path
       id="rect9-8"
       style="fill:#232629;fill-opacity:1;stroke:#444b4e;stroke-width:2.04037;stroke-linecap:square;stroke-dasharray:none;stroke-opacity:1;paint-order:markers stroke fill"
       d="m 86.037072,120.15307 c -1.774645,0.17877 -14.837072,0.83571 -17.773385,0.8411 -0.900148,0.002 -1.696275,-0.58861 -1.842071,-1.58751 l -0.39084,-2.67791 c -0.145835,-0.99888 0.483368,-1.9085 1.374841,-2.02732 l 19.476608,-2.59587 c 0.891464,-0.11881 2.123502,0.63692 1.842064,1.58751 l -1.312376,4.43269 c -0.281441,0.95059 -0.480118,1.93719 -1.374841,2.02731 z" /><path
       id="rect9-8-5"
       style="fill:#232629;fill-opacity:1;stroke:#444b4e;stroke-width:2.04037;stroke-linecap:square;stroke-dasharray:none;stroke-opacity:1;paint-order:markers stroke fill"
       d="m 91.058436,99.914056 c -0.597236,0.0602 -18.278283,2.074574 -20.1285,2.260934 -2.703206,0.2723 -6.319349,3.89504 -6.168723,5.39039 0.150627,1.49534 0.36653,1.95357 0.36653,1.95357 0.177214,1.21715 1.080056,2.07421 1.971867,1.95623 l 19.59319,-2.59213 c 0.891801,-0.118 3.146695,-1.41163 3.817746,-3.02708 l 1.638128,-3.94354 c 0.452546,-1.08944 -0.195508,-2.088494 -1.090238,-1.998374 z" /><path
       id="rect9-8-7"
       style="fill:#232629;fill-opacity:1;stroke:#444b4e;stroke-width:2.04037;stroke-linecap:square;stroke-dasharray:none;stroke-opacity:1;paint-order:markers stroke fill"
       d="m 124.05074,120.15307 c 1.77465,0.17877 14.83707,0.83571 17.77338,0.8411 0.90015,0.002 1.69628,-0.58861 1.84208,-1.58751 l 0.39084,-2.67791 c 0.14583,-0.99888 -0.48337,-1.9085 -1.37484,-2.02732 l -19.47661,-2.59587 c -0.89147,-0.11881 -2.1235,0.63692 -1.84207,1.58751 l 1.31238,4.43269 c 0.28144,0.95059 0.48012,1.93719 1.37484,2.02731 z" /><path
       id="rect9-8-5-8"
       style="fill:#232629;fill-opacity:1;stroke:#444b4e;stroke-width:2.04037;stroke-linecap:square;stroke-dasharray:none;stroke-opacity:1;paint-order:markers stroke fill"
       d="m 119.02938,99.914056 c 0.59723,0.0602 18.27828,2.074574 20.1285,2.260934 2.7032,0.2723 6.31934,3.89504 6.16872,5.39039 -0.15063,1.49534 -0.36653,1.95357 -0.36653,1.95357 -0.17721,1.21715 -1.08005,2.07421 -1.97187,1.95623 l -19.59319,-2.59213 c -0.8918,-0.118 -3.14669,-1.41163 -3.81774,-3.02708 l -1.63813,-3.94354 c -0.45255,-1.08944 0.19551,-2.088494 1.09024,-1.998374 z" /><path
       id="rect16-2"
       style="fill:#232629;stroke-width:0.463098;stroke-linecap:square;stroke-opacity:0.352113;paint-order:markers stroke fill"
       d="M 121.54781 123.71073 C 121.17832 123.71073 120.88118 123.75838 120.88118 124.03525 L 120.88118 126.75757 L 117.93873 126.75757 C 117.53811 126.75757 117.21474 127.09779 117.21474 127.52083 L 117.21474 128.46703 C 117.21474 128.89007 117.68644 130.12274 118.95469 130.12274 L 130.2155 130.12274 C 131.48375 130.12274 131.95493 128.89007 131.95493 128.46703 L 131.95493 127.52083 C 131.95493 127.09779 131.63207 126.75757 131.23146 126.75757 L 127.82805 126.75757 L 127.82805 124.03525 C 127.82805 123.75833 127.5309 123.71073 127.16142 123.71073 L 121.54781 123.71073 z " /></g></svg>
