<?xml version="1.0" encoding="UTF-8" standalone="no"?>
<!-- Created with Inkscape (http://www.inkscape.org/) -->

<svg
   width="195.68628mm"
   height="149.07118mm"
   viewBox="0 0 195.68628 149.07118"
   version="1.1"
   id="svg1"
   xml:space="preserve"
   inkscape:version="1.3 (0e150ed6c4, 2023-07-21)"
   sodipodi:docname="AR_CONTROLLER_LAYOUT_Inkscape.svg"
   xmlns:inkscape="http://www.inkscape.org/namespaces/inkscape"
   xmlns:sodipodi="http://sodipodi.sourceforge.net/DTD/sodipodi-0.dtd"
   xmlns:xlink="http://www.w3.org/1999/xlink"
   xmlns="http://www.w3.org/2000/svg"
   xmlns:svg="http://www.w3.org/2000/svg"><sodipodi:namedview
     id="namedview1"
     pagecolor="#757c80"
     bordercolor="#eeeeee"
     borderopacity="0.12156863"
     inkscape:showpageshadow="0"
     inkscape:pageopacity="0"
     inkscape:pagecheckerboard="0"
     inkscape:deskcolor="#525458"
     inkscape:document-units="mm"
     inkscape:zoom="1.3"
     inkscape:cx="370.76923"
     inkscape:cy="275"
     inkscape:window-width="1920"
     inkscape:window-height="1057"
     inkscape:window-x="-8"
     inkscape:window-y="-8"
     inkscape:window-maximized="1"
     inkscape:current-layer="layer1"
     showguides="false" /><defs
     id="defs1"><linearGradient
       id="linearGradient1014"
       inkscape:collect="always"><stop
         style="stop-color:#272a2d;stop-opacity:1;"
         offset="0"
         id="stop1013" /><stop
         style="stop-color:#25282b;stop-opacity:0.00869565;"
         offset="1"
         id="stop1014" /></linearGradient><linearGradient
       id="linearGradient1010"
       inkscape:collect="always"><stop
         style="stop-color:#272a2d;stop-opacity:1;"
         offset="0"
         id="stop1011" /><stop
         style="stop-color:#25282b;stop-opacity:0;"
         offset="1"
         id="stop1012" /></linearGradient><linearGradient
       id="linearGradient1008"
       inkscape:collect="always"><stop
         style="stop-color:#262a2d;stop-opacity:0;"
         offset="0"
         id="stop1008" /><stop
         style="stop-color:#262a2d;stop-opacity:0;"
         offset="0.5"
         id="stop1010" /><stop
         style="stop-color:#262a2d;stop-opacity:0.37173912;"
         offset="1"
         id="stop1009" /></linearGradient><linearGradient
       id="linearGradient36"
       inkscape:collect="always"><stop
         style="stop-color:#080a0c;stop-opacity:0.76677853;"
         offset="0"
         id="stop36" /><stop
         style="stop-color:#2d3135;stop-opacity:0.57550335;"
         offset="0.41884127"
         id="stop38" /><stop
         style="stop-color:#1b1c1e;stop-opacity:0.66778523;"
         offset="1"
         id="stop37" /></linearGradient><linearGradient
       id="linearGradient33"
       inkscape:collect="always"><stop
         style="stop-color:#474f56;stop-opacity:0.84539007"
         offset="0"
         id="stop29" /><stop
         style="stop-color:#3d444a;stop-opacity:0.73725492;"
         offset="0.22171168"
         id="stop30" /><stop
         style="stop-color:#22262a;stop-opacity:0.34901961;"
         offset="0.40619221"
         id="stop31" /><stop
         style="stop-color:#09090a;stop-opacity:0.18120806;"
         offset="0.89903748"
         id="stop32" /><stop
         style="stop-color:#09090a;stop-opacity:0.34228188;"
         offset="1"
         id="stop33" /></linearGradient><linearGradient
       id="linearGradient17"
       inkscape:collect="always"><stop
         style="stop-color:#474f56;stop-opacity:0.72315437;"
         offset="0"
         id="stop17" /><stop
         style="stop-color:#3d444a;stop-opacity:0.73725492;"
         offset="0.22171168"
         id="stop19" /><stop
         style="stop-color:#22262a;stop-opacity:0.34901961;"
         offset="0.40619221"
         id="stop20" /><stop
         style="stop-color:#09090a;stop-opacity:0.18120806;"
         offset="0.89903748"
         id="stop21" /><stop
         style="stop-color:#09090a;stop-opacity:0.34228188;"
         offset="1"
         id="stop18" /></linearGradient><linearGradient
       id="linearGradient14"
       inkscape:collect="always"><stop
         style="stop-color:#828d98;stop-opacity:1;"
         offset="0"
         id="stop14" /><stop
         style="stop-color:#232629;stop-opacity:0;"
         offset="1"
         id="stop15" /></linearGradient><linearGradient
       id="linearGradient12"
       inkscape:collect="always"><stop
         style="stop-color:#828d98;stop-opacity:1;"
         offset="0"
         id="stop12" /><stop
         style="stop-color:#232629;stop-opacity:0;"
         offset="1"
         id="stop13" /></linearGradient><linearGradient
       id="linearGradient9"
       inkscape:collect="always"><stop
         style="stop-color:#404448;stop-opacity:1;"
         offset="0"
         id="stop8" /><stop
         style="stop-color:#1b1b1b;stop-opacity:0;"
         offset="1"
         id="stop9" /></linearGradient><linearGradient
       id="linearGradient1524"
       inkscape:collect="always"><stop
         style="stop-color:#a1adb6;stop-opacity:0.87228262;"
         offset="0"
         id="stop1524" /><stop
         style="stop-color:#000000;stop-opacity:0.38315219;"
         offset="1"
         id="stop1525" /></linearGradient><linearGradient
       id="linearGradient1069"
       inkscape:collect="always"><stop
         style="stop-color:#e5e6e9;stop-opacity:0.12228261;"
         offset="0"
         id="stop1068" /><stop
         style="stop-color:#000000;stop-opacity:0;"
         offset="1"
         id="stop1069" /></linearGradient><linearGradient
       id="linearGradient1064"
       inkscape:collect="always"><stop
         style="stop-color:#e5e6e9;stop-opacity:0.29076087;"
         offset="0"
         id="stop1064" /><stop
         style="stop-color:#161719;stop-opacity:0;"
         offset="1"
         id="stop1065" /></linearGradient><linearGradient
       id="linearGradient3"
       inkscape:collect="always"><stop
         style="stop-color:#25272d;stop-opacity:1;"
         offset="0"
         id="stop4" /><stop
         style="stop-color:#1b1b1b;stop-opacity:1;"
         offset="1"
         id="stop5" /></linearGradient><linearGradient
       id="linearGradient1"
       inkscape:collect="always"><stop
         style="stop-color:#000000;stop-opacity:0;"
         offset="0"
         id="stop1" /><stop
         style="stop-color:#32363a;stop-opacity:0.22745098;"
         offset="0.5"
         id="stop3" /><stop
         style="stop-color:#d9edff;stop-opacity:1;"
         offset="1"
         id="stop2" /></linearGradient><radialGradient
       inkscape:collect="always"
       xlink:href="#linearGradient1"
       id="radialGradient2"
       cx="73.268799"
       cy="163.86409"
       fx="73.268799"
       fy="163.86409"
       r="6.6994262"
       gradientUnits="userSpaceOnUse"
       gradientTransform="matrix(2.4364427,-0.65284286,0.39260899,1.4652367,-176.67381,-102.13002)" /><radialGradient
       inkscape:collect="always"
       xlink:href="#linearGradient3"
       id="radialGradient5"
       cx="73.158951"
       cy="163.40569"
       fx="73.158951"
       fy="163.40569"
       r="7.4277868"
       gradientUnits="userSpaceOnUse"
       gradientTransform="matrix(0.91715672,0,0,0.95955185,6.0607276,6.6094571)" /><radialGradient
       inkscape:collect="always"
       xlink:href="#linearGradient1"
       id="radialGradient2-1"
       cx="73.268799"
       cy="163.86409"
       fx="73.268799"
       fy="163.86409"
       r="6.6994262"
       gradientUnits="userSpaceOnUse"
       gradientTransform="matrix(2.4364427,-0.65284286,0.39260899,1.4652367,-129.61947,-82.187132)" /><radialGradient
       inkscape:collect="always"
       xlink:href="#linearGradient3"
       id="radialGradient7"
       cx="120.21329"
       cy="183.34857"
       fx="120.21329"
       fy="183.34857"
       r="7.4277868"
       gradientUnits="userSpaceOnUse" /><radialGradient
       inkscape:collect="always"
       xlink:href="#linearGradient1"
       id="radialGradient2-1-8"
       cx="73.268799"
       cy="163.86409"
       fx="73.268799"
       fy="163.86409"
       r="6.6994262"
       gradientUnits="userSpaceOnUse"
       gradientTransform="matrix(1.436494,-0.38490741,0.231477,0.86388392,-23.933517,-23.309887)" /><radialGradient
       inkscape:collect="always"
       xlink:href="#linearGradient1"
       id="radialGradient2-1-8-3"
       cx="73.268799"
       cy="163.86409"
       fx="73.268799"
       fy="163.86409"
       r="6.6994262"
       gradientUnits="userSpaceOnUse"
       gradientTransform="matrix(1.436494,-0.38490741,0.231477,0.86388392,-15.329981,-30.911141)" /><radialGradient
       inkscape:collect="always"
       xlink:href="#linearGradient1"
       id="radialGradient2-1-8-3-9"
       cx="73.268799"
       cy="163.86409"
       fx="73.268799"
       fy="163.86409"
       r="6.6994262"
       gradientUnits="userSpaceOnUse"
       gradientTransform="matrix(1.436494,-0.38490741,0.231477,0.86388392,-15.329983,-15.708625)" /><radialGradient
       inkscape:collect="always"
       xlink:href="#linearGradient1"
       id="radialGradient2-1-8-3-5"
       cx="73.268799"
       cy="163.86409"
       fx="73.268799"
       fy="163.86409"
       r="6.6994262"
       gradientUnits="userSpaceOnUse"
       gradientTransform="matrix(1.436494,-0.38490741,0.231477,0.86388392,-6.7264537,-23.309883)" /><filter
       inkscape:collect="always"
       style="color-interpolation-filters:sRGB"
       id="filter1064"
       x="-0.04015564"
       y="-0.035130903"
       width="1.0803113"
       height="1.0702618"><feGaussianBlur
         inkscape:collect="always"
         stdDeviation="0.059986602"
         id="feGaussianBlur1064" /></filter><filter
       inkscape:collect="always"
       style="color-interpolation-filters:sRGB"
       id="filter1064-2"
       x="-0.04015564"
       y="-0.035130903"
       width="1.0803113"
       height="1.0702618"><feGaussianBlur
         inkscape:collect="always"
         stdDeviation="0.059986602"
         id="feGaussianBlur1064-9" /></filter><filter
       inkscape:collect="always"
       style="color-interpolation-filters:sRGB"
       id="filter1064-5"
       x="-0.04015564"
       y="-0.035130903"
       width="1.0803113"
       height="1.0702618"><feGaussianBlur
         inkscape:collect="always"
         stdDeviation="0.059986602"
         id="feGaussianBlur1064-1" /></filter><filter
       inkscape:collect="always"
       style="color-interpolation-filters:sRGB"
       id="filter1064-5-6"
       x="-0.04015564"
       y="-0.035130903"
       width="1.0803113"
       height="1.0702618"><feGaussianBlur
         inkscape:collect="always"
         stdDeviation="0.059986602"
         id="feGaussianBlur1064-1-8" /></filter><linearGradient
       inkscape:collect="always"
       xlink:href="#linearGradient1064"
       id="linearGradient1065"
       x1="82.201988"
       y1="178.75264"
       x2="82.294601"
       y2="179.85864"
       gradientUnits="userSpaceOnUse"
       gradientTransform="matrix(0.96977996,0,0,1,-4.7066039,-73.964408)" /><linearGradient
       inkscape:collect="always"
       xlink:href="#linearGradient1064"
       id="linearGradient1066"
       gradientUnits="userSpaceOnUse"
       x1="82.201988"
       y1="178.75264"
       x2="82.294601"
       y2="179.85864"
       gradientTransform="translate(5.8547615,-5.9631419)" /><linearGradient
       inkscape:collect="always"
       xlink:href="#linearGradient1064"
       id="linearGradient1067"
       gradientUnits="userSpaceOnUse"
       gradientTransform="matrix(0.97582625,0,0,1,6.6956963,-73.964408)"
       x1="82.201988"
       y1="178.75264"
       x2="82.294601"
       y2="179.85864" /><linearGradient
       inkscape:collect="always"
       xlink:href="#linearGradient1069"
       id="linearGradient1068"
       gradientUnits="userSpaceOnUse"
       gradientTransform="translate(-1.3020939,-67.907651)"
       x1="82.201988"
       y1="178.75264"
       x2="82.294601"
       y2="179.85864" /><filter
       inkscape:collect="always"
       style="color-interpolation-filters:sRGB"
       id="filter1526-0"
       x="-0.051615695"
       y="-0.07972055"
       width="1.1032314"
       height="1.1594411"><feGaussianBlur
         inkscape:collect="always"
         stdDeviation="2.4700924"
         id="feGaussianBlur1526-7" /></filter><linearGradient
       inkscape:collect="always"
       xlink:href="#linearGradient1524"
       id="linearGradient1533"
       gradientUnits="userSpaceOnUse"
       x1="89.203094"
       y1="156.81708"
       x2="102.38284"
       y2="206.00458"
       spreadMethod="pad"
       gradientTransform="translate(-7.1568604,-73.964408)" /><filter
       inkscape:collect="always"
       style="color-interpolation-filters:sRGB"
       id="filter1539"
       x="-0.063108547"
       y="-0.09945123"
       width="1.1262171"
       height="1.1989025"><feGaussianBlur
         inkscape:collect="always"
         stdDeviation="2.9086894"
         id="feGaussianBlur1539" /></filter><clipPath
       clipPathUnits="userSpaceOnUse"
       id="clipPath1539"><path
         id="path1539"
         style="display:inline;fill:#25282c;fill-opacity:1;stroke:none;stroke-width:1.57261;stroke-linecap:square;stroke-opacity:0.211886;paint-order:markers stroke fill;filter:url(#filter1539)"
         d="m 83.066712,145.41733 c -5.857188,-0.0606 -18.607655,1.36325 -21.259684,2.8944 -3.264036,1.88449 -16.32458,47.01554 -10.746631,58.02072 5.577957,11.00517 13.529281,10.67404 16.459978,6.89519 2.930697,-3.77885 10.978408,-23.96894 13.093774,-21.85358 3.337678,3.33768 4.258097,3.65921 7.855338,3.65921 3.59723,0 6.58306,0.30798 8.80411,-1.91306 h 7.726143 7.72666 c 2.22105,2.22104 5.20688,1.91306 8.80412,1.91306 3.59723,0 4.51766,-0.32153 7.85533,-3.65921 2.11536,-2.11536 10.16308,18.07473 13.09378,21.85358 2.93069,3.77885 10.88202,4.10998 16.45997,-6.89519 5.57796,-11.00518 -7.48259,-56.13623 -10.74663,-58.02072 -3.26403,-1.88449 -21.82525,-3.60668 -24.00473,-2.59829 -2.17949,1.00839 -2.5304,2.03521 -3.65714,4.18321 -3.46897,0.29828 -5.48984,0.60823 -15.53136,0.60823 -10.041523,0 -12.061863,-0.30995 -15.530833,-0.60823 -1.12675,-2.148 -1.47765,-3.17482 -3.657142,-4.18321 -0.408655,-0.18907 -1.393394,-0.28211 -2.745053,-0.29611 z"
         sodipodi:nodetypes="cssssscccsssssscscsc"
         inkscape:label="controller_CLIP"
         clip-path="none" /></clipPath><clipPath
       clipPathUnits="userSpaceOnUse"
       id="clipPath1540"><path
         id="path1540"
         style="display:inline;fill:#2f3337;fill-opacity:1;stroke:none;stroke-width:1.57261;stroke-linecap:square;stroke-opacity:0.211886;paint-order:markers stroke fill"
         d="m 83.066711,145.41733 c -5.857188,-0.0606 -18.607655,1.36325 -21.259684,2.8944 -3.264036,1.88449 -16.32458,47.01554 -10.746631,58.02072 5.577957,11.00517 13.529281,10.67404 16.459978,6.89519 2.930697,-3.77885 10.978408,-23.96894 13.093774,-21.85358 3.337678,3.33768 4.258097,3.65921 7.855338,3.65921 3.59723,0 6.58306,0.30798 8.80411,-1.91306 h 7.726144 7.72666 c 2.22105,2.22104 5.20688,1.91306 8.80412,1.91306 3.59723,0 4.51766,-0.32153 7.85533,-3.65921 2.11536,-2.11536 10.16308,18.07473 13.09378,21.85358 2.93069,3.77885 10.88202,4.10998 16.45997,-6.89519 5.57796,-11.00518 -7.48259,-56.13623 -10.74663,-58.02072 -3.26403,-1.88449 -21.82525,-3.60668 -24.00473,-2.59829 -2.17949,1.00839 -2.5304,2.03521 -3.65714,4.18321 -3.46897,0.29828 -5.48984,0.60823 -15.53136,0.60823 -10.041524,0 -12.061864,-0.30995 -15.530834,-0.60823 -1.12675,-2.148 -1.47765,-3.17482 -3.657142,-4.18321 -0.408655,-0.18907 -1.393394,-0.28211 -2.745053,-0.29611 z"
         sodipodi:nodetypes="cssssscccsssssscscsc"
         inkscape:label="controller_CLIP"
         clip-path="url(#clipPath1539)" /></clipPath><clipPath
       clipPathUnits="userSpaceOnUse"
       id="clipPath1541"><path
         id="path1541"
         style="display:inline;fill:#2f3337;fill-opacity:1;stroke:none;stroke-width:1.57261;stroke-linecap:square;stroke-opacity:0.211886;paint-order:markers stroke fill"
         d="m 83.066711,145.41733 c -5.857188,-0.0606 -18.607655,1.36325 -21.259684,2.8944 -3.264036,1.88449 -16.32458,47.01554 -10.746631,58.02072 5.577957,11.00517 13.529281,10.67404 16.459978,6.89519 2.930697,-3.77885 10.978408,-23.96894 13.093774,-21.85358 3.337678,3.33768 4.258097,3.65921 7.855338,3.65921 3.59723,0 6.58306,0.30798 8.80411,-1.91306 h 7.726144 7.72666 c 2.22105,2.22104 5.20688,1.91306 8.80412,1.91306 3.59723,0 4.51766,-0.32153 7.85533,-3.65921 2.11536,-2.11536 10.16308,18.07473 13.09378,21.85358 2.93069,3.77885 10.88202,4.10998 16.45997,-6.89519 5.57796,-11.00518 -7.48259,-56.13623 -10.74663,-58.02072 -3.26403,-1.88449 -21.82525,-3.60668 -24.00473,-2.59829 -2.17949,1.00839 -2.5304,2.03521 -3.65714,4.18321 -3.46897,0.29828 -5.48984,0.60823 -15.53136,0.60823 -10.041524,0 -12.061864,-0.30995 -15.530834,-0.60823 -1.12675,-2.148 -1.47765,-3.17482 -3.657142,-4.18321 -0.408655,-0.18907 -1.393394,-0.28211 -2.745053,-0.29611 z"
         sodipodi:nodetypes="cssssscccsssssscscsc"
         inkscape:label="controller_CLIP"
         transform="translate(-7.1568604,-73.964408)"
         clip-path="url(#clipPath1539)" /></clipPath><clipPath
       clipPathUnits="userSpaceOnUse"
       id="clipPath1542"><path
         id="path1542"
         style="display:inline;fill:#2f3337;fill-opacity:1;stroke:none;stroke-width:1.57261;stroke-linecap:square;stroke-opacity:0.211886;paint-order:markers stroke fill"
         d="m 83.066711,145.41733 c -5.857188,-0.0606 -18.607655,1.36325 -21.259684,2.8944 -3.264036,1.88449 -16.32458,47.01554 -10.746631,58.02072 5.577957,11.00517 13.529281,10.67404 16.459978,6.89519 2.930697,-3.77885 10.978408,-23.96894 13.093774,-21.85358 3.337678,3.33768 4.258097,3.65921 7.855338,3.65921 3.59723,0 6.58306,0.30798 8.80411,-1.91306 h 7.726144 7.72666 c 2.22105,2.22104 5.20688,1.91306 8.80412,1.91306 3.59723,0 4.51766,-0.32153 7.85533,-3.65921 2.11536,-2.11536 10.16308,18.07473 13.09378,21.85358 2.93069,3.77885 10.88202,4.10998 16.45997,-6.89519 5.57796,-11.00518 -7.48259,-56.13623 -10.74663,-58.02072 -3.26403,-1.88449 -21.82525,-3.60668 -24.00473,-2.59829 -2.17949,1.00839 -2.5304,2.03521 -3.65714,4.18321 -3.46897,0.29828 -5.48984,0.60823 -15.53136,0.60823 -10.041524,0 -12.061864,-0.30995 -15.530834,-0.60823 -1.12675,-2.148 -1.47765,-3.17482 -3.657142,-4.18321 -0.408655,-0.18907 -1.393394,-0.28211 -2.745053,-0.29611 z"
         sodipodi:nodetypes="cssssscccsssssscscsc"
         inkscape:label="controller_CLIP"
         transform="translate(-7.1568604,-73.964408)"
         clip-path="url(#clipPath1539)" /></clipPath><linearGradient
       inkscape:collect="always"
       xlink:href="#linearGradient9"
       id="linearGradient1549"
       x1="95.660927"
       y1="161.98805"
       x2="95.830772"
       y2="164.01262"
       gradientUnits="userSpaceOnUse"
       gradientTransform="matrix(0.91076566,0,0,0.82408302,1.3740785,-45.129924)" /><linearGradient
       inkscape:collect="always"
       xlink:href="#linearGradient9"
       id="linearGradient10"
       gradientUnits="userSpaceOnUse"
       gradientTransform="matrix(0.91076566,0,0,0.82408302,19.525662,-45.13394)"
       x1="95.660927"
       y1="161.98805"
       x2="95.830772"
       y2="164.01262" /><linearGradient
       inkscape:collect="always"
       xlink:href="#linearGradient9"
       id="linearGradient11"
       gradientUnits="userSpaceOnUse"
       gradientTransform="matrix(0.60881039,0,0,0.82408302,39.317252,-38.07717)"
       x1="95.660927"
       y1="161.98805"
       x2="95.830772"
       y2="164.01262" /><filter
       inkscape:collect="always"
       style="color-interpolation-filters:sRGB"
       id="filter11"
       x="-0.030285807"
       y="-0.030285793"
       width="1.0605716"
       height="1.0605716"><feGaussianBlur
         inkscape:collect="always"
         stdDeviation="0.22547332"
         id="feGaussianBlur11" /></filter><linearGradient
       inkscape:collect="always"
       xlink:href="#linearGradient12"
       id="linearGradient13"
       x1="71.194221"
       y1="143.70171"
       x2="71.471573"
       y2="145.845"
       gradientUnits="userSpaceOnUse"
       gradientTransform="matrix(1.0189908,0,0,1,-8.7609879,-74.32821)" /><linearGradient
       inkscape:collect="always"
       xlink:href="#linearGradient14"
       id="linearGradient15"
       x1="128.4091"
       y1="69.252617"
       x2="128.32996"
       y2="71.312759"
       gradientUnits="userSpaceOnUse"
       gradientTransform="matrix(1.0222556,0,0,1,-3.0985487,-0.26458333)" /><filter
       inkscape:collect="always"
       style="color-interpolation-filters:sRGB"
       id="filter15"
       x="-0.013386309"
       y="-0.030991694"
       width="1.0267726"
       height="1.0619834"><feGaussianBlur
         inkscape:collect="always"
         stdDeviation="0.1388269"
         id="feGaussianBlur15" /></filter><filter
       inkscape:collect="always"
       style="color-interpolation-filters:sRGB"
       id="filter16"
       x="-0.01447619"
       y="-0.01571038"
       width="1.0289524"
       height="1.0314208"><feGaussianBlur
         inkscape:collect="always"
         stdDeviation="0.15390766"
         id="feGaussianBlur16" /></filter><filter
       inkscape:collect="always"
       style="color-interpolation-filters:sRGB"
       id="filter17"
       x="-0.013946764"
       y="-0.02481273"
       width="1.0278935"
       height="1.0496255"><feGaussianBlur
         inkscape:collect="always"
         stdDeviation="0.35976795"
         id="feGaussianBlur17" /></filter><linearGradient
       inkscape:collect="always"
       xlink:href="#linearGradient17"
       id="linearGradient18"
       x1="72.213623"
       y1="100.65195"
       x2="73.831268"
       y2="110.82671"
       gradientUnits="userSpaceOnUse"
       gradientTransform="matrix(0.78472126,0,0,0.75416651,8.7209315,-42.558522)" /><linearGradient
       inkscape:collect="always"
       xlink:href="#linearGradient17"
       id="linearGradient18-0"
       x1="72.213623"
       y1="100.65195"
       x2="73.831268"
       y2="110.82671"
       gradientUnits="userSpaceOnUse"
       gradientTransform="matrix(-0.78650859,0,0,0.75588424,187.33325,-42.684471)" /><linearGradient
       inkscape:collect="always"
       xlink:href="#linearGradient17"
       id="linearGradient23"
       x1="65.401329"
       y1="38.941273"
       x2="66.262482"
       y2="46.085026"
       gradientUnits="userSpaceOnUse"
       gradientTransform="matrix(1.0266817,0,0,1,-1.8738701,5.4316488)" /><linearGradient
       inkscape:collect="always"
       xlink:href="#linearGradient17"
       id="linearGradient24"
       gradientUnits="userSpaceOnUse"
       x1="65.401329"
       y1="38.941273"
       x2="66.262482"
       y2="46.085026"
       gradientTransform="matrix(-1.0355756,0,0,0.96887138,198.27258,6.7570836)" /><linearGradient
       inkscape:collect="always"
       xlink:href="#linearGradient33"
       id="linearGradient27"
       x1="90.356514"
       y1="90.715828"
       x2="96.203033"
       y2="123.15852"
       gradientUnits="userSpaceOnUse" /><filter
       inkscape:collect="always"
       style="color-interpolation-filters:sRGB"
       id="filter29"
       x="-0.027817161"
       y="-0.068441751"
       width="1.0556343"
       height="1.1368835"><feGaussianBlur
         inkscape:collect="always"
         stdDeviation="1.3179437"
         id="feGaussianBlur29" /></filter><clipPath
       clipPathUnits="userSpaceOnUse"
       id="clipPath34"><path
         id="path34"
         style="display:inline;fill:#2f3337;fill-opacity:1;stroke:none;stroke-width:3.23908;stroke-linecap:square;stroke-dasharray:none;stroke-opacity:1;paint-order:markers stroke fill"
         d="m 60.174923,81.391293 c -2.789309,-0.02889 -6.271178,1.32654 -9.021871,5.131178 -4.401103,6.087427 3.038343,32.440499 8.479388,35.581899 2.720528,1.57071 10.285413,2.07222 19.06415,2.18102 1.097344,0.0136 2.213652,-0.002 3.341836,-0.0332 1.128183,-0.0315 2.268244,-0.0792 3.41309,-0.13036 2.289691,-0.10236 4.59852,-0.21868 6.869764,-0.24733 2.271241,-0.0286 4.504896,-0.0607 6.64424,-0.0857 2.13934,-0.0249 4.18437,-0.0427 6.07836,-0.0427 1.89399,0 3.93902,0.0178 6.07836,0.0427 2.13934,0.0249 4.37299,0.057 6.64423,0.0857 1.13562,0.0143 2.28064,0.0506 3.42797,0.096 1.14732,0.0455 2.29695,0.10013 3.4418,0.15131 2.28969,0.10235 4.56023,0.19074 6.75492,0.16353 8.77874,-0.10884 16.34362,-0.61031 19.06416,-2.18102 5.44104,-3.14139 12.88048,-29.494472 8.47938,-35.581899 -4.40111,-6.087421 -10.67452,-5.904492 -12.9869,-3.814248 -2.31237,2.090237 -8.81239,14.194307 -10.33142,14.601328 -1.51902,0.40702 -21.43598,-1.433968 -30.5725,-1.433968 -9.136528,0 -29.053491,1.840988 -30.572511,1.433968 -1.519021,-0.407021 -8.01905,-12.511091 -10.331421,-14.601328 -0.867137,-0.783842 -2.29144,-1.299595 -3.965025,-1.31693 z"
         sodipodi:nodetypes="ssssssssssssssssssssss"
         inkscape:label="TOPVIEW_CONTROLLER" /></clipPath><linearGradient
       inkscape:collect="always"
       xlink:href="#linearGradient36"
       id="linearGradient37"
       x1="96.704849"
       y1="56.528538"
       x2="96.704849"
       y2="63.500916"
       gradientUnits="userSpaceOnUse"
       gradientTransform="translate(0,-2.7704345)" /><filter
       inkscape:collect="always"
       style="color-interpolation-filters:sRGB"
       id="filter51"
       x="-0.0095134003"
       y="-0.024321564"
       width="1.0190268"
       height="1.0486431"><feGaussianBlur
         inkscape:collect="always"
         stdDeviation="0.090201371"
         id="feGaussianBlur51" /></filter><filter
       inkscape:collect="always"
       style="color-interpolation-filters:sRGB"
       id="filter52"
       x="-0.0095134008"
       y="-0.024321565"
       width="1.0190268"
       height="1.0486431"><feGaussianBlur
         inkscape:collect="always"
         stdDeviation="0.090201371"
         id="feGaussianBlur52" /></filter><filter
       inkscape:collect="always"
       style="color-interpolation-filters:sRGB"
       id="filter53"
       x="-0.0078606633"
       y="-0.018697358"
       width="1.0157213"
       height="1.0373947"><feGaussianBlur
         inkscape:collect="always"
         stdDeviation="0.090201371"
         id="feGaussianBlur53" /></filter><filter
       inkscape:collect="always"
       style="color-interpolation-filters:sRGB"
       id="filter54"
       x="-0.0078606612"
       y="-0.018698072"
       width="1.0157213"
       height="1.0373961"><feGaussianBlur
         inkscape:collect="always"
         stdDeviation="0.090201371"
         id="feGaussianBlur54" /></filter><radialGradient
       inkscape:collect="always"
       xlink:href="#linearGradient1008"
       id="radialGradient1009"
       cx="103.78002"
       cy="109.60174"
       fx="103.78002"
       fy="109.60174"
       r="14.621085"
       gradientTransform="matrix(0.69584409,2.3470017e-7,-6.9303479e-7,2.7882179,25.67903,-270.49548)"
       gradientUnits="userSpaceOnUse" /><radialGradient
       inkscape:collect="always"
       xlink:href="#linearGradient1010"
       id="radialGradient1012"
       cx="64.858139"
       cy="99.646111"
       fx="64.858139"
       fy="99.646111"
       r="12.326492"
       gradientTransform="matrix(0.8660254,-0.5,0.4603921,0.7974225,-37.186939,51.724434)"
       gradientUnits="userSpaceOnUse" /><radialGradient
       inkscape:collect="always"
       xlink:href="#linearGradient1014"
       id="radialGradient1012-0"
       cx="64.858139"
       cy="99.646111"
       fx="64.858139"
       fy="99.646111"
       r="12.326492"
       gradientTransform="matrix(-0.8660254,-0.5,-0.4603921,0.7974225,240.11786,-22.240229)"
       gradientUnits="userSpaceOnUse" /></defs><g
     inkscape:label="CONTROLLER"
     inkscape:groupmode="layer"
     id="layer1"
     transform="translate(-7.1568604,-73.964409)"
     style="display:inline"><path
       id="rect9"
       style="fill:#232629;fill-opacity:1;stroke:none;stroke-width:0.49116;stroke-linecap:square;stroke-opacity:0.352113;paint-order:markers stroke fill"
       d="m 64.494375,144.71558 c 6.127556,-1.31744 12.255111,-1.46138 18.382667,-1.68081 0.933175,-0.0334 1.746948,0.59514 1.831972,1.52503 l 0.360474,3.94245 c 0.08502,0.92989 -0.595135,1.74695 -1.525027,1.83198 l -18.382667,1.6808 c -0.92989,0.085 -1.74695,-0.59514 -1.831973,-1.52503 l -0.360475,-3.94245 c -0.08502,-0.92989 0.612122,-1.6357 1.525029,-1.83197 z"
       sodipodi:nodetypes="sssssssss"
       inkscape:label="FRONTVIEW_L" /><path
       id="rect9-9"
       style="fill:#232629;fill-opacity:1;stroke:none;stroke-width:0.49116;stroke-linecap:square;stroke-opacity:0.352113;paint-order:markers stroke fill"
       d="m 145.50542,144.71558 c -6.12756,-1.31744 -12.25511,-1.46138 -18.38267,-1.68081 -0.93317,-0.0334 -1.74694,0.59514 -1.83197,1.52503 l -0.36047,3.94245 c -0.085,0.92989 0.59513,1.74695 1.52502,1.83198 l 18.38267,1.6808 c 0.92989,0.085 1.74695,-0.59514 1.83197,-1.52503 l 0.36048,-3.94245 c 0.085,-0.92989 -0.61212,-1.6357 -1.52503,-1.83197 z"
       sodipodi:nodetypes="sssssssss"
       inkscape:label="FRONTVIEW_R" /><path
       id="rect10"
       style="fill:#2f3337;fill-opacity:1;stroke:none;stroke-width:1.57261;stroke-linecap:square;stroke-opacity:0.211886;paint-order:markers stroke fill"
       d="m 83.066711,145.41733 c -5.857188,-0.0606 -18.607655,1.36325 -21.259684,2.8944 -3.264036,1.88449 -16.32458,47.01554 -10.746631,58.02072 5.577957,11.00517 13.529281,10.67404 16.459978,6.89519 2.930697,-3.77885 10.978408,-23.96894 13.093774,-21.85358 3.337678,3.33768 4.258097,3.65921 7.855338,3.65921 3.59723,0 6.58306,0.30798 8.80411,-1.91306 h 7.726144 7.72666 c 2.22105,2.22104 5.20688,1.91306 8.80412,1.91306 3.59723,0 4.51766,-0.32153 7.85533,-3.65921 2.11536,-2.11536 10.16308,18.07473 13.09378,21.85358 2.93069,3.77885 10.88202,4.10998 16.45997,-6.89519 5.57796,-11.00518 -7.48259,-56.13623 -10.74663,-58.02072 -3.26403,-1.88449 -21.82525,-3.60668 -24.00473,-2.59829 -2.17949,1.00839 -2.5304,2.03521 -3.65714,4.18321 -3.46897,0.29828 -5.48984,0.60823 -15.53136,0.60823 -10.041524,0 -12.061864,-0.30995 -15.530834,-0.60823 -1.12675,-2.148 -1.47765,-3.17482 -3.657142,-4.18321 -0.408655,-0.18907 -1.393394,-0.28211 -2.745053,-0.29611 z"
       sodipodi:nodetypes="cssssscccsssssscscsc"
       inkscape:label="FRONTVIEW_CONTROLLER" /><path
       style="color:#000000;display:inline;mix-blend-mode:soft-light;fill:url(#linearGradient1533);stroke-linecap:square;-inkscape-stroke:none;paint-order:markers stroke fill;filter:url(#filter1526-0)"
       d="m 75.931033,69.365672 c -3.113298,-0.0322 -7.784162,0.31727 -12.115235,0.86719 -2.165536,0.27495 -4.23436,0.59972 -5.976562,0.96484 -1.742203,0.36512 -3.063714,0.66704 -4.232422,1.3418 -0.854316,0.49323 -1.095626,0.98279 -1.445313,1.54101 -0.349686,0.55822 -0.681979,1.21047 -1.035156,1.98047 -0.706353,1.53999 -1.478079,3.54655 -2.291016,5.92383 -1.625873,4.75455 -3.404496,10.96716 -4.908203,17.48242 -1.503706,6.515258 -2.73243,13.320928 -3.236328,19.281248 -0.503897,5.96032 -0.451353,11.00538 1.351563,14.5625 2.973537,5.86671 6.769421,9.04977 10.542968,10.06445 3.773548,1.01469 7.420454,-0.24579 9.427735,-2.83398 1.000691,-1.2903 1.988196,-3.23072 3.201172,-5.64844 1.212976,-2.41772 2.556637,-5.22769 3.865234,-7.83008 1.308597,-2.60238 2.597163,-5.0137 3.589844,-6.50976 0.215984,-0.32551 0.289297,-0.37037 0.466797,-0.59375 1.134491,1.06386 2.157745,1.91847 3.289062,2.43164 1.510637,0.68523 3.025935,0.76367 4.886719,0.76367 1.739067,0 3.451005,0.0957 5.201172,-0.14258 1.426701,-0.19423 2.874352,-0.7997 4.177734,-1.76953 h 7.152342 7.15234 c 1.30339,0.96983 2.75104,1.5753 4.17774,1.76953 1.75017,0.23827 3.4621,0.14258 5.20117,0.14258 1.86078,0 3.37608,-0.0784 4.88672,-0.76367 1.13132,-0.51317 2.15457,-1.36778 3.28906,-2.43164 0.1775,0.22338 0.25081,0.26824 0.4668,0.59375 0.99268,1.49606 2.28124,3.90738 3.58984,6.50976 1.3086,2.60239 2.65226,5.41236 3.86524,7.83008 1.21297,2.41772 2.20048,4.35814 3.20117,5.64844 2.00728,2.5882 5.65418,3.84867 9.42773,2.83398 3.77355,-1.01468 7.56944,-4.19773 10.54297,-10.06445 1.80292,-3.55712 1.85546,-8.60218 1.35156,-14.5625 -0.50389,-5.96032 -1.73262,-12.76599 -3.23632,-19.281248 -1.50371,-6.51526 -3.28233,-12.72787 -4.90821,-17.48242 -0.81293,-2.37728 -1.58466,-4.38384 -2.29101,-5.92383 -0.35318,-0.77 -0.68547,-1.42225 -1.03516,-1.98047 -0.34969,-0.55822 -0.591,-1.04778 -1.44531,-1.54101 -1.4384,-0.83046 -3.17312,-1.16247 -5.48633,-1.58789 -2.31321,-0.42543 -5.05071,-0.78988 -7.75586,-1.06446 -2.70514,-0.27457 -5.36903,-0.45688 -7.54492,-0.50781 -1.08795,-0.0255 -2.05109,-0.0205 -2.86914,0.0312 -0.81806,0.0518 -1.38028,0.0348 -2.26758,0.44531 -1.29596,0.59961 -2.30363,1.37741 -3.00195,2.28516 -0.44511,0.57859 -0.72406,1.19558 -1.03711,1.79883 -2.94254,0.26806 -5.30195,0.51367 -14.27344,0.51367 -8.971109,0 -11.331145,-0.24562 -14.273436,-0.51367 -0.313052,-0.60325 -0.592003,-1.22024 -1.037109,-1.79883 -0.698325,-0.90775 -1.70599,-1.68555 -3.001953,-2.28516 -0.665607,-0.30795 -1.111169,-0.33737 -1.677734,-0.39648 -0.566565,-0.0591 -1.203428,-0.0863 -1.921875,-0.0937 z m -0.04297,4.17383 c 0.63321,0.007 1.165368,0.0321 1.53125,0.0703 0.365882,0.0382 0.616328,0.15208 0.359375,0.0332 0.883526,0.40878 1.141628,0.64821 1.445312,1.04297 0.303685,0.39476 0.654717,1.09863 1.240235,2.21484 l 0.53125,1.01172 1.138672,0.0977 c 3.41494,0.29363 5.624534,0.61719 15.708983,0.61719 10.08445,0 12.29403,-0.32355 15.70898,-0.61719 l 1.13868,-0.0977 0.53125,-1.01172 c 0.58551,-1.1162 0.93655,-1.82008 1.24023,-2.21484 0.30369,-0.39476 0.56179,-0.63418 1.44531,-1.04297 -0.34242,0.15843 0.15237,-0.0267 0.7793,-0.0664 0.62693,-0.0397 1.49816,-0.049 2.50781,-0.0254 2.01932,0.0473 4.60511,0.2228 7.22071,0.48829 2.61559,0.26548 5.26874,0.62159 7.42187,1.01757 2.07127,0.38093 3.69543,0.91507 3.99805,1.05664 0.0485,0.05 0.0893,0.0811 0.15234,0.18165 0.19751,0.31528 0.47387,0.838 0.7793,1.5039 0.61086,1.3318 1.35143,3.24639 2.13476,5.53711 1.56668,4.58144 3.31883,10.69162 4.79102,17.070308 1.47219,6.3787 2.66638,13.03752 3.14453,18.69336 0.47816,5.65584 0.07,10.37875 -0.91602,12.32422 -2.60441,5.13845 -5.57307,7.2936 -7.90234,7.91992 -2.32927,0.62633 -4.12347,-0.16872 -5.04687,-1.35937 -0.46466,-0.59913 -1.5832,-2.59828 -2.76954,-4.96289 -1.18633,-2.36461 -2.53505,-5.18091 -3.86914,-7.83399 -1.33408,-2.65307 -2.63705,-5.12868 -3.83984,-6.9414 -0.6014,-0.90636 -1.13625,-1.64453 -1.87891,-2.26367 -0.37132,-0.30958 -0.80964,-0.63396 -1.54101,-0.76954 -0.73138,-0.13557 -1.7778,0.17819 -2.32031,0.72071 -1.62471,1.62471 -2.5335,2.3463 -3.2168,2.65625 -0.6833,0.30995 -1.42566,0.39258 -3.16211,0.39258 -1.85816,0 -3.4394,0.0575 -4.63672,-0.10547 -1.19731,-0.16301 -1.9475,-0.45141 -2.69336,-1.19727 l -0.61133,-0.61133 h -8.58984 -8.589842 l -0.611328,0.61133 c -0.74586,0.74586 -1.496044,1.03426 -2.693359,1.19727 -1.197315,0.163 -2.77856,0.10547 -4.636719,0.10547 -1.736453,0 -2.478809,-0.0826 -3.162109,-0.39258 -0.683301,-0.30995 -1.592082,-1.03154 -3.216797,-2.65625 -0.542517,-0.54252 -1.588939,-0.85628 -2.320313,-0.72071 -0.731374,0.13558 -1.169687,0.45996 -1.541015,0.76954 -0.742656,0.61914 -1.27751,1.35731 -1.878907,2.26367 -1.202794,1.81272 -2.505757,4.28833 -3.839843,6.9414 -1.334086,2.65308 -2.68281,5.46938 -3.869141,7.83399 -1.186331,2.36461 -2.304876,4.36376 -2.769531,4.96289 -0.923413,1.19065 -2.717604,1.9857 -5.046875,1.35937 -2.329272,-0.62632 -5.297929,-2.78147 -7.902344,-7.91992 -0.986056,-1.94547 -1.394172,-6.66838 -0.916016,-12.32422 0.478157,-5.65584 1.672344,-12.31466 3.144532,-18.69336 1.472187,-6.378688 3.224341,-12.488868 4.791015,-17.070308 0.783337,-2.29072 1.523904,-4.20531 2.134766,-5.53711 0.305431,-0.6659 0.581793,-1.18862 0.779297,-1.5039 0.06486,-0.10354 0.107498,-0.13771 0.15625,-0.1875 0.259956,-0.1213 1.347576,-0.51148 2.839843,-0.82422 1.577428,-0.33059 3.560757,-0.64534 5.646485,-0.91016 4.171456,-0.52965 8.802991,-0.86237 11.546875,-0.83398 z"
       id="path1532"
       inkscape:label="controller_RIMLIGHT"
       clip-path="url(#clipPath1542)"
       transform="translate(7.1568604,73.964409)" /><g
       id="g27"
       inkscape:label="ACENT_HIGHLIGHT"
       style="fill:#33393d;fill-opacity:1;stroke:#000000;stroke-width:0.265;stroke-dasharray:none;stroke-opacity:0.145833;paint-order:markers stroke fill"><circle
         style="fill:#33393d;fill-opacity:1;stroke:#000000;stroke-width:0.265;stroke-linecap:square;stroke-dasharray:none;stroke-opacity:0.145833;paint-order:markers stroke fill"
         id="path15-4"
         cx="89.671204"
         cy="181.57031"
         r="10.925413"
         inkscape:label="ACCENT4" /><circle
         style="fill:#33393d;fill-opacity:1;stroke:#000000;stroke-width:0.265;stroke-linecap:square;stroke-dasharray:none;stroke-opacity:0.145833;paint-order:markers stroke fill"
         id="path14-6-7-2-6"
         cx="120.21329"
         cy="183.34857"
         r="9.8404751"
         inkscape:label="ACCENT3" /><circle
         style="fill:#33393d;fill-opacity:1;stroke:#000000;stroke-width:0.265;stroke-linecap:square;stroke-dasharray:none;stroke-opacity:0.145833;paint-order:markers stroke fill"
         id="path14-6-7-2"
         cx="73.158951"
         cy="163.40569"
         r="9.8404751"
         inkscape:label="ACCENT2" /><rect
         style="fill:#33393d;fill-opacity:1;stroke:#000000;stroke-width:0.265;stroke-linecap:square;stroke-dasharray:none;stroke-opacity:0.145833;paint-order:markers stroke fill"
         id="rect22"
         width="25.431942"
         height="25.431942"
         x="-33.007843"
         y="198.36089"
         rx="7.6160312"
         ry="7.6160312"
         transform="rotate(-45)"
         inkscape:label="ACCENT1" /></g><g
       id="g11"
       inkscape:label="DPAD"><path
         id="rect2-5-2-9"
         style="opacity:0.333333;fill:#18191b;fill-opacity:1;stroke-width:3.31427;stroke-linecap:square;stroke-opacity:0.211886;paint-order:markers stroke fill;filter:url(#filter11)"
         inkscape:label="DPAD_Shade"
         d="m 87.216056,173.16559 c -0.311434,0 -0.562239,0.25081 -0.562239,0.56224 v 5.3542 h -5.354195 c -0.311435,0 -0.56224,0.25081 -0.56224,0.56224 v 4.91029 c 0,0.31144 0.250805,0.56224 0.56224,0.56224 h 5.354195 v 5.3542 c 0,0.31143 0.250805,0.56224 0.562239,0.56224 h 4.910294 c 0.311434,0 0.562241,-0.25081 0.562241,-0.56224 v -5.3542 h 5.354195 c 0.311434,0 0.562238,-0.2508 0.562238,-0.56224 v -4.91029 c 0,-0.31143 -0.250804,-0.56224 -0.562238,-0.56224 h -5.354195 v -5.3542 c 0,-0.31143 -0.250807,-0.56224 -0.562241,-0.56224 z" /><rect
         style="fill:#232629;fill-opacity:1;stroke:#202020;stroke-width:0.3;stroke-linecap:square;stroke-dasharray:none;stroke-opacity:1;paint-order:markers stroke fill"
         id="rect2-5-2"
         width="6.0346632"
         height="17.86771"
         x="86.65387"
         y="172.63646"
         rx="0.56215572"
         ry="0.56215572"
         inkscape:label="rect2" /><rect
         style="fill:#232629;fill-opacity:1;stroke:#202020;stroke-width:0.3;stroke-linecap:square;stroke-dasharray:none;stroke-opacity:1;paint-order:markers stroke fill"
         id="rect2-5-6-8"
         width="6.0346632"
         height="17.86771"
         x="178.55298"
         y="-98.605049"
         rx="0.56215572"
         ry="0.56215572"
         transform="rotate(90)"
         inkscape:label="rect1" /><rect
         style="fill:#1d1f20;fill-opacity:1;stroke:#191a1d;stroke-width:0.514012;stroke-linecap:square;stroke-dasharray:none;stroke-opacity:1;paint-order:markers stroke fill"
         id="rect3-9"
         width="4.5810685"
         height="4.5810661"
         x="87.380676"
         y="179.27977"
         rx="0.194665"
         ry="0.194665"
         inkscape:label="shape2" /><rect
         style="fill:none;fill-opacity:1;stroke:#202020;stroke-width:0.143888;stroke-linecap:square;stroke-dasharray:none;stroke-opacity:1;paint-order:markers stroke fill"
         id="rect3-9-8"
         width="6.2601447"
         height="6.2601418"
         x="86.541138"
         y="178.44023"
         rx="0.26601458"
         ry="0.26601458"
         inkscape:label="shape2" /><circle
         style="fill:#161719;fill-opacity:1;stroke:none;stroke-width:0.529167;stroke-linecap:square;stroke-dasharray:none;stroke-opacity:1;paint-order:markers stroke fill"
         id="path6-5"
         cx="89.671204"
         cy="181.5703"
         r="0.46497273"
         inkscape:label="shape1" /><path
         style="color:#000000;fill:#1e2022;fill-opacity:1;stroke-width:0.773046;stroke-linecap:square;-inkscape-stroke:none;paint-order:markers stroke fill"
         d="m 91.56847,176.66405 h -3.79454 l 1.89727,-3.32006 z"
         id="path5-9"
         sodipodi:nodetypes="cccc"
         inkscape:label="UP" /><path
         style="color:#000000;fill:#1e2022;fill-opacity:1;stroke-width:0.773046;stroke-linecap:square;-inkscape-stroke:none;paint-order:markers stroke fill"
         d="m 94.57746,179.67304 v 3.79455 l 3.32006,-1.89727 z"
         id="path5-2-5"
         sodipodi:nodetypes="cccc"
         inkscape:label="RIGHT" /><path
         style="color:#000000;fill:#1e2022;fill-opacity:1;stroke-width:0.773046;stroke-linecap:square;-inkscape-stroke:none;paint-order:markers stroke fill"
         d="m 84.764925,179.67303 v 3.79456 l -3.320059,-1.89729 z"
         id="path5-2-7-7"
         sodipodi:nodetypes="cccc"
         inkscape:label="LEFT" /><path
         style="color:#000000;fill:#1e2022;fill-opacity:1;stroke-width:0.773046;stroke-linecap:square;-inkscape-stroke:none;paint-order:markers stroke fill"
         d="m 87.773921,185.92612 h 3.794559 l -1.89729,3.32006 z"
         id="path5-2-7-7-8"
         sodipodi:nodetypes="cccc"
         inkscape:label="DOWN" /></g><rect
       style="fill:#1f2124;fill-opacity:1;stroke:#33393d;stroke-width:1.75955;stroke-linecap:square;stroke-dasharray:none;stroke-opacity:1;paint-order:markers stroke fill"
       id="rect7-7-8-9"
       width="4.773469"
       height="3.6823869"
       x="-107.06405"
       y="169.38301"
       rx="0.69136292"
       ry="1.0606138"
       transform="scale(-1,1)"
       inkscape:label="FRONTVIEW_HOME" /><rect
       style="fill:#1f2124;fill-opacity:1;stroke:#33393d;stroke-width:1.76;stroke-linecap:square;stroke-dasharray:none;stroke-opacity:1;paint-order:markers stroke fill"
       id="rect14"
       width="6.7380486"
       height="3.1448991"
       x="92.232498"
       y="162.31435"
       rx="0.96386331"
       ry="0.72790676"
       inkscape:label="FRONTVIEW_SELECT" /><rect
       style="fill:#1f2124;fill-opacity:1;stroke:#33393d;stroke-width:1.75955;stroke-linecap:square;stroke-dasharray:none;stroke-opacity:1;paint-order:markers stroke fill"
       id="rect14-6"
       width="6.7380486"
       height="3.1448991"
       x="-117.12213"
       y="162.31435"
       rx="0.96386331"
       ry="0.72790676"
       transform="scale(-1,1)"
       inkscape:label="FRONTVIEW_START" /><path
       id="rect7-7-8-9-1"
       style="mix-blend-mode:normal;fill:#1c1f21;fill-opacity:0.452381;stroke:none;stroke-width:1.75955;stroke-linecap:square;stroke-dasharray:none;stroke-opacity:1;paint-order:markers stroke fill;filter:url(#filter15)"
       inkscape:label="FRONTVIEW_SELECTIONS_SHADE"
       d="m 93.34858,162.70342 c -0.53398,0 -0.964282,0.32435 -0.964282,0.72761 v 1.6893 c 0,0.40326 0.430302,0.7276 0.964282,0.7276 h 4.810042 c 0.53398,0 0.963766,-0.32434 0.963766,-0.7276 v -1.6893 c 0,-0.40326 -0.429786,-0.72761 -0.963766,-0.72761 z m 18.15135,0 c -0.53398,0 -0.96377,0.32435 -0.96377,0.72761 v 1.6893 c 0,0.40326 0.42979,0.7276 0.96377,0.7276 h 4.81056 c 0.53398,0 0.96376,-0.32434 0.96376,-0.7276 v -1.6893 c 0,-0.40326 -0.42978,-0.72761 -0.96376,-0.72761 z m -8.3659,7.0683 c -0.38302,0 -0.69143,0.47334 -0.69143,1.06092 v 1.56115 c 0,0.58758 0.30841,1.0604 0.69143,1.0604 h 3.39049 c 0.38301,0 0.69143,-0.47282 0.69143,-1.0604 v -1.56115 c 0,-0.58758 -0.30842,-1.06092 -0.69143,-1.06092 z" /><circle
       style="fill:url(#radialGradient7);fill-opacity:1;stroke:none;stroke-width:0.363414;stroke-linecap:square;stroke-dasharray:none;stroke-opacity:0.352113;paint-order:markers stroke fill"
       id="path14-6"
       cx="120.21329"
       cy="183.34857"
       r="7.4277868"
       inkscape:label="FRONTVIEW_RIGHTSTICK" /><path
       id="path14-6-6"
       style="fill:#121516;fill-opacity:0.337798;stroke:none;stroke-width:0.363414;stroke-linecap:square;stroke-dasharray:none;stroke-opacity:0.352113;paint-order:markers stroke fill;filter:url(#filter17)"
       inkscape:label="FRONTVIEW_STICKS_SHADE"
       d="m 73.6882,156.50718 a 7.4277868,7.4277868 0 0 0 -7.42797,7.42745 7.4277868,7.4277868 0 0 0 7.42797,7.42797 7.4277868,7.4277868 0 0 0 7.427454,-7.42797 7.4277868,7.4277868 0 0 0 -7.427454,-7.42745 z m 47.0545,19.94297 a 7.4277868,7.4277868 0 0 0 -7.42797,7.42745 7.4277868,7.4277868 0 0 0 7.42797,7.42797 7.4277868,7.4277868 0 0 0 7.42745,-7.42797 7.4277868,7.4277868 0 0 0 -7.42745,-7.42745 z" /><circle
       style="fill:url(#radialGradient5);fill-opacity:1;stroke:none;stroke-width:0.363414;stroke-linecap:square;stroke-dasharray:none;stroke-opacity:1;paint-order:markers stroke fill"
       id="path14-6-3"
       cx="73.158951"
       cy="163.40569"
       r="7.4277868"
       inkscape:label="FRONTVIEW_LEFTSTICK" /><circle
       style="fill:#1f2124;fill-opacity:1;stroke:#000000;stroke-width:0.203261;stroke-linecap:square;stroke-dasharray:none;stroke-opacity:0.352113;paint-order:markers stroke fill"
       id="path14-1-3-8-6"
       cx="126.3018"
       cy="163.60239"
       r="4.1544275"
       inkscape:label="FRONTVIEW_BUTTONPAD_LEFT" /><circle
       style="fill:#1f2124;fill-opacity:1;stroke:#000000;stroke-width:0.203261;stroke-linecap:square;stroke-dasharray:none;stroke-opacity:0.352113;paint-order:markers stroke fill"
       id="path14-1-3"
       cx="143.50888"
       cy="163.60239"
       r="4.1544275"
       inkscape:label="FRONTVIEW_BUTTONPAD_RIGHT" /><circle
       style="fill:#1f2124;fill-opacity:1;stroke:#000000;stroke-width:0.203261;stroke-linecap:square;stroke-dasharray:none;stroke-opacity:0.352113;paint-order:markers stroke fill"
       id="path14-1"
       cx="134.90535"
       cy="156.00113"
       r="4.1544275"
       inkscape:label="FRONTVIEW_BUTTONPAD_TOP" /><circle
       style="fill:#1f2124;fill-opacity:1;stroke:#000000;stroke-width:0.203261;stroke-linecap:square;stroke-dasharray:none;stroke-opacity:0.352113;paint-order:markers stroke fill"
       id="path14-1-3-8"
       cx="134.90535"
       cy="171.20364"
       r="4.1544275"
       inkscape:label="FRONTVIEW_BUTTONPAD_BOTTOM" /><path
       id="path14-1-3-8-6-1"
       style="fill:#1f2124;fill-opacity:0.46875;stroke:none;stroke-width:0.203261;stroke-linecap:square;stroke-dasharray:none;stroke-opacity:0.352113;paint-order:markers stroke fill;filter:url(#filter16)"
       inkscape:label="FRONTVIEW_BUTTONPAD_LEFT"
       d="m 135.11562,152.37565 a 4.1544275,4.1544275 0 0 0 -4.15427,4.15478 4.1544275,4.1544275 0 0 0 4.15427,4.15427 4.1544275,4.1544275 0 0 0 4.15478,-4.15427 4.1544275,4.1544275 0 0 0 -4.15478,-4.15478 z m -8.6031,7.6016 a 4.1544275,4.1544275 0 0 0 -4.15478,4.15427 4.1544275,4.1544275 0 0 0 4.15478,4.15427 4.1544275,4.1544275 0 0 0 4.15427,-4.15427 4.1544275,4.1544275 0 0 0 -4.15427,-4.15427 z m 17.2067,0 a 4.1544275,4.1544275 0 0 0 -4.15426,4.15427 4.1544275,4.1544275 0 0 0 4.15426,4.15427 4.1544275,4.1544275 0 0 0 4.15479,-4.15427 4.1544275,4.1544275 0 0 0 -4.15479,-4.15427 z m -8.6036,7.60109 a 4.1544275,4.1544275 0 0 0 -4.15427,4.15426 4.1544275,4.1544275 0 0 0 4.15427,4.15479 4.1544275,4.1544275 0 0 0 4.15478,-4.15479 4.1544275,4.1544275 0 0 0 -4.15478,-4.15426 z" /><path
       id="rect7-7-9"
       style="fill:#232629;fill-opacity:1;stroke:none;stroke-width:0.238237;stroke-linecap:square;stroke-dasharray:none;stroke-opacity:1;paint-order:markers stroke fill"
       d="m 122.58054,128.77664 c -0.68219,0.0235 -1.22129,0.34591 -1.20831,0.72262 l 0.0345,1.0009 c 0.0131,0.37669 0.57297,0.66071 1.25516,0.6372 l 6.03896,-0.20811 c 0.68219,-0.0235 1.2213,-0.34542 1.20831,-0.72211 l -0.0345,-1.00089 c -0.0131,-0.37671 -0.573,-0.66124 -1.25519,-0.63774 z m 17.54355,-0.6046 c -0.68219,0.0235 -1.22077,0.3459 -1.20778,0.72261 l 0.0345,1.00089 c 0.0131,0.37669 0.57246,0.66073 1.25465,0.63722 l 6.03946,-0.20813 c 0.6822,-0.0235 1.22131,-0.34541 1.20834,-0.7221 l -0.0345,-1.0009 c -0.0131,-0.37671 -0.573,-0.66124 -1.2552,-0.63773 z m -8.76777,0.42574 c -0.68221,0.0235 -1.22078,0.34591 -1.20781,0.72261 l 0.0345,1.00089 c 0.0131,0.3767 0.57248,0.66125 1.25468,0.63774 l 6.03946,-0.20814 c 0.6822,-0.0235 1.22129,-0.34591 1.20831,-0.72261 l -0.0345,-1.0009 c -0.0131,-0.3767 -0.57299,-0.66124 -1.25519,-0.63772 z"
       inkscape:label="TOPVIEW_BUTTONPAD" /><path
       id="rect27"
       style="fill:#232629;stroke-width:2;stroke-linecap:square;paint-order:markers stroke fill"
       inkscape:label="TOPVIEW_HOME"
       d="m 112.50237,127.02554 c -0.60695,0 -1.09554,0.36897 -1.09554,0.82734 v 1.91978 c 0,0.45837 0.48859,0.82734 1.09554,0.82734 h 5.46788 c 0.60695,0 1.09554,-0.36897 1.09554,-0.82734 v -1.91978 c 0,-0.45837 -0.48859,-0.82734 -1.09554,-0.82734 z m -9.5095,0.12351 c -0.43536,0 -0.78548,0.53774 -0.78548,1.20561 v 1.08779 c 0,0.66787 0.35012,1.20561 0.78548,1.20561 h 3.85455 c 0.43536,0 0.78548,-0.53774 0.78548,-1.20561 v -1.08779 c 0,-0.66787 -0.35012,-1.20561 -0.78548,-1.20561 z" /><path
       id="rect12"
       style="fill:#232629;fill-opacity:1;stroke-width:0.602313;stroke-linecap:square;paint-order:markers stroke fill"
       d="m 84.102035,128.53849 c -0.60636,0 -0.569475,0.25121 -0.569475,1.26917 v 0.28164 c 0,0.75481 0.489197,1.40659 1.094507,1.36219 l 3.679362,-0.26975 h 0.494544 c 0.12121,0.30822 0.547357,0.53537 1.05885,0.53537 h 3.922758 c 0.511492,0 0.93764,-0.22715 1.05885,-0.53537 h 0.822689 l 3.678845,0.26975 c 0.606355,0 1.094505,-0.60738 1.094505,-1.36219 v -0.28164 c 0,-1.12632 -0.0944,-1.26917 -0.700731,-1.26917 H 95.66412 88.306429 Z"
       inkscape:label="TOPVIEW_DPAD" /><path
       id="rect16"
       style="fill:#232629;fill-opacity:1;stroke:none;stroke-width:0.543075;stroke-linecap:square;stroke-dasharray:none;stroke-opacity:0.352113;paint-order:markers stroke fill"
       d="m 73.033976,126.35185 c -0.383433,0 -0.691947,0.29507 -0.691947,0.66197 v 4.39715 h -3.0856 c -0.417753,0 -0.754476,0.3552 -0.754476,0.79634 v 0.9865 c 0,0.44114 0.491345,1.72703 1.813843,1.72703 h 11.742436 c 1.322498,0 1.813842,-1.28589 1.813842,-1.72703 v -0.9865 c 0,-0.44114 -0.336722,-0.79634 -0.754475,-0.79634 h -3.566191 v -4.39715 c 0,-0.3669 -0.308514,-0.66197 -0.691948,-0.66197 z"
       inkscape:label="TOPVIEW_LEFTSTICK" /><path
       id="rect10-5"
       style="fill:#2f3337;fill-opacity:1;stroke-width:3.23908;stroke-linecap:square;stroke-dasharray:none;stroke-opacity:0.211886;paint-order:markers stroke fill"
       d="m 60.174922,86.822942 c -2.789308,-0.02889 -6.271178,1.32654 -9.02187,5.131178 -4.401102,6.087427 3.038343,32.4405 8.479388,35.5819 2.720528,1.57071 10.285411,2.07222 19.06415,2.18102 1.097342,0.0136 2.213651,-0.002 3.341836,-0.0332 1.128184,-0.0315 2.268244,-0.0792 3.41309,-0.13036 2.28969,-0.10236 4.59852,-0.21868 6.869763,-0.24733 2.271243,-0.0286 4.504898,-0.0607 6.64424,-0.0857 2.139341,-0.0249 4.184371,-0.0427 6.078361,-0.0427 1.89399,0 3.93902,0.0178 6.07836,0.0427 2.13934,0.0249 4.37299,0.057 6.64423,0.0857 1.13562,0.0143 2.28064,0.0506 3.42797,0.096 1.14732,0.0455 2.29695,0.10013 3.4418,0.15131 2.28969,0.10235 4.56023,0.19074 6.75492,0.16353 8.77874,-0.10884 16.34362,-0.61031 19.06416,-2.18102 5.44104,-3.14139 12.88048,-29.494473 8.47938,-35.5819 -4.40111,-6.087421 -10.67452,-5.904492 -12.9869,-3.814248 -2.31237,2.090237 -8.81239,14.194308 -10.33142,14.601328 -1.51902,0.40702 -21.43598,-1.43397 -30.5725,-1.43397 -9.136527,0 -29.05349,1.84099 -30.572512,1.43397 -1.51902,-0.40702 -8.019049,-12.511091 -10.33142,-14.601328 -0.867139,-0.783842 -2.291441,-1.299595 -3.965026,-1.31693 z"
       sodipodi:nodetypes="ssssssssssssssssssssss"
       inkscape:label="TOPVIEW_CONTROLLER" /><path
       style="color:#000000;fill:url(#linearGradient27);stroke-linecap:square;-inkscape-stroke:none;paint-order:markers stroke fill;filter:url(#filter29)"
       d="m 58.554687,79.753906 v 0.208985 c -2.947136,0.43688 -6.167617,2.088114 -8.714843,5.611328 -1.552266,2.147031 -1.772771,5.179289 -1.601563,8.71289 0.171209,3.533602 0.878032,7.580291 1.894531,11.535161 1.0165,3.95486 2.341414,7.80577 3.791016,10.93359 1.449602,3.12782 2.827435,5.55625 4.898438,6.75195 1.85855,1.07305 4.496821,1.50205 7.908203,1.84571 3.411381,0.34365 7.530878,0.49607 11.945312,0.55078 1.126296,0.014 2.265421,-0.002 3.408203,-0.0332 1.143352,-0.0319 2.291556,-0.0796 3.439453,-0.13086 2.295849,-0.10263 4.58856,-0.21796 6.81836,-0.24609 2.273129,-0.0286 4.506265,-0.061 6.642578,-0.0859 2.136315,-0.0249 4.174755,-0.043 6.058595,-0.043 1.88384,0 3.92424,0.0181 6.06055,0.043 2.13625,0.0249 4.36949,0.0572 6.64257,0.0859 1.11482,0.014 2.2459,0.0487 3.38477,0.0937 1.13883,0.0452 2.2857,0.10103 3.43359,0.15234 2.29585,0.10263 4.59565,0.19199 6.84766,0.16407 4.41443,-0.0547 8.53393,-0.20714 11.94531,-0.55078 3.41138,-0.34365 6.04965,-0.77266 7.9082,-1.84571 2.07101,-1.19569 3.44884,-3.62413 4.89844,-6.75195 1.4496,-3.12782 2.77452,-6.97873 3.79102,-10.93359 1.0165,-3.95487 1.72332,-8.001559 1.89453,-11.535161 0.17121,-3.533601 -0.0493,-6.565859 -1.60156,-8.71289 -4.83826,-6.692069 -12.02824,-7.104209 -15.38672,-4.06836 -0.87491,0.790866 -1.65736,1.941587 -2.63672,3.408203 -0.97936,1.466617 -2.05948,3.197471 -3.10938,4.863282 -1.0499,1.665811 -2.07166,3.270379 -2.89453,4.443359 -0.41143,0.58649 -0.77732,1.066725 -1.03711,1.363281 -0.0823,0.09391 -0.1407,0.118739 -0.20898,0.16211 -0.0381,-0.01419 -0.1959,0.0082 -0.70703,0 -0.6721,-0.01081 -1.5992,-0.0483 -2.70117,-0.105469 -2.20395,-0.114337 -5.11888,-0.306974 -8.27539,-0.511719 -6.31303,-0.409489 -13.57102,-0.873047 -18.24805,-0.873047 -4.67704,0 -11.933066,0.463558 -18.246095,0.873047 -3.156514,0.204745 -6.073399,0.397382 -8.277344,0.511719 -1.101972,0.05717 -2.027122,0.09466 -2.699219,0.105469 -0.511132,0.0082 -0.668973,-0.01419 -0.707031,0 -0.06828,-0.04337 -0.126724,-0.0682 -0.208984,-0.16211 -0.259781,-0.296556 -0.625674,-0.776791 -1.03711,-1.363281 -0.82287,-1.172981 -1.84463,-2.777548 -2.894531,-4.443359 -1.049901,-1.665812 -2.13001,-3.396665 -3.109375,-4.863282 -0.979364,-1.466616 -1.761806,-2.617337 -2.636719,-3.408203 -1.259427,-1.138447 -3.038411,-1.713692 -5.035156,-1.734375 z m 1.603516,3.257813 h 0.01172 c 1.344119,0.01684 2.411484,0.470619 2.884765,0.898437 0.281272,0.254252 1.178022,1.399242 2.115235,2.802735 0.937212,1.403492 2.008472,3.118655 3.0625,4.791015 1.054028,1.67236 2.087053,3.299848 2.982422,4.576172 0.447684,0.638162 0.858435,1.187217 1.253906,1.638672 0.395471,0.451455 0.564376,0.881093 1.583984,1.154297 0.764607,0.204875 1.076762,0.123289 1.820313,0.111328 0.743551,-0.01196 1.692842,-0.05119 2.814453,-0.109375 2.243223,-0.116374 5.163696,-0.309047 8.318359,-0.513672 6.309328,-0.409249 13.57763,-0.867187 18.03711,-0.867187 4.45948,0 11.72974,0.457938 18.03906,0.867187 3.15466,0.204625 6.07514,0.397298 8.31836,0.513672 1.12161,0.05819 2.0709,0.09741 2.81445,0.109375 0.74355,0.01196 1.05571,0.09355 1.82032,-0.111328 1.0196,-0.273202 1.18851,-0.702841 1.58398,-1.154297 0.39547,-0.451456 0.80622,-1.000509 1.25391,-1.638672 0.89537,-1.276325 1.92839,-2.903812 2.98242,-4.576172 1.05403,-1.67236 2.12529,-3.387523 3.0625,-4.791015 0.93721,-1.403493 1.83396,-2.548483 2.11523,-2.802735 1.26628,-1.144634 6.6259,-1.922214 10.58985,3.560547 0.64828,0.89668 1.14614,3.442305 0.99023,6.660156 -0.15591,3.217852 -0.82352,7.097771 -1.79687,10.884771 -0.97336,3.78699 -2.25375,7.49178 -3.5918,10.3789 -1.33805,2.88713 -2.92861,4.93164 -3.57813,5.30664 -0.86197,0.49767 -3.3674,1.10271 -6.61328,1.42969 -3.24587,0.32697 -7.29781,0.48105 -11.66211,0.53516 -2.13736,0.0265 -4.37858,-0.06 -6.66211,-0.16211 -1.1418,-0.0511 -2.29536,-0.10651 -3.45117,-0.15235 -1.15578,-0.0457 -2.31428,-0.0811 -3.4707,-0.0957 -2.2694,-0.0287 -4.50407,-0.061 -6.64648,-0.0859 -2.14237,-0.0249 -4.19353,-0.043 -6.09766,-0.043 -1.90414,0 -3.95334,0.018 -6.095703,0.043 -2.142367,0.025 -4.377132,0.0574 -6.646485,0.0859 -2.312681,0.0292 -4.638348,0.14596 -6.921875,0.24805 -1.141792,0.051 -2.271751,0.0978 -3.384765,0.1289 -1.113586,0.0308 -2.208958,0.0464 -3.277344,0.0332 -4.364296,-0.0541 -8.416239,-0.20818 -11.66211,-0.53516 -3.24587,-0.32698 -5.751306,-0.93202 -6.613281,-1.42969 -0.649517,-0.375 -2.240074,-2.41951 -3.578125,-5.30664 -1.33805,-2.88712 -2.620397,-6.59191 -3.59375,-10.3789 -0.973353,-3.787 -1.639012,-7.66692 -1.794922,-10.884771 -0.155909,-3.21785 0.341951,-5.763476 0.990235,-6.660156 2.477499,-3.42677 5.44259,-4.482296 7.693359,-4.458984 z"
       id="rect10-5-7"
       clip-path="url(#clipPath34)"
       inkscape:label="TOPVIEW_RIMSHADE"
       transform="translate(0,5.4316488)" /><g
       id="g5"
       inkscape:label="Button_inlay"><path
         style="color:#000000;display:inline;fill:#33393d;stroke:#000000;stroke-width:0.265;stroke-linecap:square;stroke-dasharray:none;stroke-opacity:0.145098;paint-order:markers stroke fill"
         d="m 123.04901,116.50594 c -0.72167,-0.009 -1.38599,0.23876 -1.93373,0.7028 -0.54773,0.46405 -0.9901,1.3294 -0.73071,2.20555 l 1.31259,4.43332 c 0.13196,0.4457 0.24747,0.9739 0.53123,1.51774 0.28375,0.54385 0.91144,1.1525 1.72082,1.23403 2.0235,0.20384 14.78998,0.84028 17.87282,0.84594 1.3477,0.003 2.6394,-0.99142 2.85357,-2.45876 l 0.39067,-2.67787 c 0.21919,-1.50138 -0.74498,-2.98681 -2.24999,-3.18741 l -19.47633,-2.5957 c -0.0958,-0.0128 -0.19236,-0.0183 -0.29094,-0.0196 z"
         id="path5" /><path
         style="color:#000000;display:inline;fill:#33393d;stroke:#000000;stroke-width:0.265;stroke-linecap:square;stroke-dasharray:none;stroke-opacity:0.145098;paint-order:markers stroke fill"
         d="m 87.038806,116.50594 c -0.09858,0.001 -0.195079,0.007 -0.290938,0.0196 l -19.476331,2.5957 c -1.505011,0.2006 -2.469191,1.68602 -2.249992,3.18741 l 0.390674,2.67787 c 0.21417,1.46735 1.505857,2.46176 2.853573,2.45876 3.082836,-0.006 15.849315,-0.6421 17.872811,-0.84594 0.809399,-0.0815 1.437068,-0.69018 1.720825,-1.23403 0.283757,-0.54384 0.399273,-1.07204 0.531234,-1.51774 l 1.312581,-4.43332 c 0.259398,-0.87615 -0.182966,-1.7415 -0.730705,-2.20555 -0.547737,-0.46404 -1.212061,-0.71226 -1.933732,-0.7028 z"
         id="path4" /><path
         style="color:#000000;display:inline;fill:#33393d;stroke:#000000;stroke-width:0.23215;stroke-linecap:square;stroke-dasharray:none;stroke-opacity:0.145098;paint-order:markers stroke fill"
         d="m 122.01127,104.92961 c -0.66077,0.0355 -1.22598,0.4982 -1.49903,1.09539 -0.27309,0.59733 -0.28761,1.33682 -0.0243,2.02816 l 1.37288,3.60767 c 0.3807,0.99946 1.10589,1.74016 1.82677,2.29953 0.72086,0.55938 1.37007,0.93756 2.05434,1.03631 l 16.43692,2.37092 c 0.67845,0.0979 1.31259,-0.21584 1.7613,-0.69498 0.43622,-0.46577 0.72939,-1.101 0.83751,-1.82439 0.033,-0.0967 0.0584,-0.14993 0.10448,-0.35741 0.0723,-0.32577 0.15473,-0.81242 0.22109,-1.53129 0.0693,-0.74989 -0.21614,-1.32112 -0.57006,-1.91516 -0.35392,-0.59406 -0.83341,-1.189 -1.39109,-1.74924 -1.11538,-1.12048 -2.507,-2.12737 -3.9795,-2.28912 -0.74061,-0.0813 -4.86204,-0.58669 -8.82645,-1.07555 -3.96441,-0.48885 -7.69774,-0.95421 -8.05743,-0.99375 -0.086,-0.009 -0.17609,-0.0119 -0.26701,-0.007 z"
         id="path3" /><path
         style="color:#000000;display:inline;fill:#33393d;stroke:#000000;stroke-width:0.232151;stroke-linecap:square;stroke-dasharray:none;stroke-opacity:0.145098;paint-order:markers stroke fill"
         d="m 88.076098,104.92914 c -0.09095,-0.005 -0.181046,-0.002 -0.267036,0.007 -0.359679,0.0395 -4.093004,0.50489 -8.057417,0.99374 -3.964413,0.48887 -8.085841,0.9942 -8.826441,1.07555 -1.472508,0.16175 -2.864137,1.16865 -3.979506,2.28912 -0.557682,0.56025 -1.037176,1.1552 -1.391093,1.74925 -0.353916,0.59404 -0.639312,1.16526 -0.57005,1.91516 0.06639,0.71887 0.148847,1.20553 0.221085,1.53128 0.04601,0.20749 0.07142,0.26075 0.104472,0.35741 0.108132,0.72339 0.4013,1.35862 0.837517,1.8244 0.44872,0.47913 1.082855,0.79285 1.7613,0.69497 l 16.436923,-2.37091 c 0.684269,-0.0987 1.333472,-0.47693 2.054344,-1.0363 0.720872,-0.55939 1.446071,-1.30007 1.826758,-2.29953 l 1.372887,-3.60771 c 0.263328,-0.69137 0.248838,-1.43083 -0.02428,-2.02817 -0.273051,-0.5972 -0.838266,-1.05993 -1.499033,-1.0954 z"
         id="path49" /></g><path
       id="rect9-8"
       style="fill:#1b1b1b;fill-opacity:1;stroke:none;stroke-width:2.04037;stroke-linecap:square;stroke-dasharray:none;stroke-opacity:1;paint-order:markers stroke fill"
       d="m 86.037072,125.58472 c -1.774645,0.17877 -14.837072,0.83571 -17.773385,0.8411 -0.900148,0.002 -1.696275,-0.58861 -1.842071,-1.58751 l -0.39084,-2.67791 c -0.145835,-0.99888 0.483368,-1.9085 1.374841,-2.02732 l 19.476608,-2.59587 c 0.891464,-0.11881 2.123502,0.63692 1.842064,1.58751 l -1.312376,4.43269 c -0.281441,0.95059 -0.480118,1.93719 -1.374841,2.02731 z"
       sodipodi:nodetypes="sssssssss"
       inkscape:label="TOPVIEW_L" /><path
       id="rect9-8-5"
       style="fill:#1b1b1b;fill-opacity:1;stroke:none;stroke-width:1.68755;stroke-linecap:square;stroke-dasharray:none;stroke-opacity:1;paint-order:markers stroke fill"
       d="m 87.807046,106.39221 c -0.49396,0.0498 -15.11756,1.71583 -16.647833,1.86997 -2.235762,0.22521 -5.226593,3.2215 -5.102014,4.45827 0.12458,1.23676 0.303149,1.61575 0.303149,1.61575 0.14657,1.00668 0.89329,1.71554 1.630887,1.61795 l 16.205091,-2.14388 c 0.737589,-0.0976 2.602561,-1.16753 3.157572,-2.50364 l 1.35486,-3.26161 c 0.37429,-0.90105 -0.161701,-1.72734 -0.901712,-1.65281 z"
       sodipodi:nodetypes="sszssssss"
       inkscape:transform-center-x="-1.0228041"
       inkscape:transform-center-y="0.63685628"
       inkscape:label="TOPVIEW_Z_LEFT" /><path
       id="rect9-8-7"
       style="fill:#1b1b1b;fill-opacity:1;stroke:none;stroke-width:2.04037;stroke-linecap:square;stroke-dasharray:none;stroke-opacity:1;paint-order:markers stroke fill"
       d="m 124.05074,125.58472 c 1.77465,0.17877 14.83707,0.83571 17.77338,0.8411 0.90015,0.002 1.69628,-0.58861 1.84208,-1.58751 l 0.39084,-2.67791 c 0.14583,-0.99888 -0.48337,-1.9085 -1.37484,-2.02732 l -19.47661,-2.59587 c -0.89147,-0.11881 -2.1235,0.63692 -1.84207,1.58751 l 1.31238,4.43269 c 0.28144,0.95059 0.48012,1.93719 1.37484,2.02731 z"
       sodipodi:nodetypes="sssssssss"
       inkscape:label="TOPVIEW_R" /><path
       id="rect16-2"
       style="fill:#232629;fill-opacity:1;stroke:none;stroke-width:0.463098;stroke-linecap:square;stroke-opacity:0.352113;paint-order:markers stroke fill"
       d="m 121.54781,129.14238 c -0.36949,0 -0.66663,0.0477 -0.66663,0.32452 v 2.72232 h -2.94245 c -0.40062,0 -0.72399,0.34022 -0.72399,0.76326 v 0.9462 c 0,0.42304 0.4717,1.65571 1.73995,1.65571 h 11.26081 c 1.26825,0 1.73943,-1.23267 1.73943,-1.65571 v -0.9462 c 0,-0.42304 -0.32286,-0.76326 -0.72347,-0.76326 h -3.40341 v -2.72232 c 0,-0.27692 -0.29715,-0.32452 -0.66663,-0.32452 z"
       inkscape:label="TOPVIEW_RIGHT_STICK" /><path
       id="rect9-8-5-8"
       style="fill:#1b1b1b;fill-opacity:1;stroke:none;stroke-width:1.69138;stroke-linecap:square;stroke-dasharray:none;stroke-opacity:1;paint-order:markers stroke fill"
       d="m 122.33985,106.38078 c 0.49507,0.0499 15.152,1.71973 16.68574,1.87423 2.24087,0.22572 5.23849,3.22884 5.11363,4.46842 -0.12488,1.23958 -0.30383,1.61942 -0.30383,1.61942 -0.1469,1.00899 -0.89532,1.71946 -1.6346,1.62165 l -16.24201,-2.14877 c -0.73926,-0.0978 -2.60849,-1.1702 -3.16476,-2.50933 l -1.35794,-3.26906 c -0.37515,-0.90308 0.16207,-1.73126 0.90377,-1.65656 z"
       sodipodi:nodetypes="sszssssss"
       inkscape:transform-center-x="-1.0251298"
       inkscape:transform-center-y="0.63830771"
       inkscape:label="TOPVIEW_Z_RIGHT" /><path
       id="path54"
       style="fill:#2e3237;fill-opacity:1;stroke:#000000;stroke-width:0.451644;stroke-linecap:square;stroke-linejoin:bevel;stroke-dasharray:none;stroke-dashoffset:37.3185;stroke-opacity:0.279762;paint-order:markers stroke fill"
       d="m 105.04391,111.8778 a 2.6120532,2.6120532 0 0 0 -2.61224,2.61224 2.6120532,2.6120532 0 0 0 2.61224,2.61173 2.6120532,2.6120532 0 0 0 2.61224,-2.61173 2.6120532,2.6120532 0 0 0 -2.61224,-2.61224 z m 0,1.91306 a 0.69922727,0.69922727 0 0 1 0.69918,0.69918 0.69922727,0.69922727 0 0 1 -0.69918,0.69918 0.69922727,0.69922727 0 0 1 -0.69918,-0.69918 0.69922727,0.69922727 0 0 1 0.69918,-0.69918 z"
       inkscape:label="DOT" /></g><g
     inkscape:groupmode="layer"
     id="layer2"
     inkscape:label="shading"
     style="display:inline"><circle
       style="fill:url(#radialGradient2);stroke:none;stroke-width:0.31293;stroke-linecap:square;stroke-dasharray:none;stroke-opacity:1;paint-order:markers stroke fill"
       id="path14-6-3-2"
       cx="66.00209"
       cy="89.441277"
       r="6.3959427"
       inkscape:label="FRONTVIEW_LEFTSTICK" /><circle
       style="fill:url(#radialGradient2-1);stroke:none;stroke-width:0.31293;stroke-linecap:square;stroke-dasharray:none;stroke-opacity:1;paint-order:markers stroke fill"
       id="path14-6-3-2-3"
       cx="113.05643"
       cy="109.38416"
       r="6.3959427"
       inkscape:label="FRONTVIEW_LEFTSTICK" /><g
       id="g1"
       inkscape:label="DPAD_shade"><path
         id="path5-2-7-7-4"
         style="color:#000000;mix-blend-mode:normal;fill:#191a1c;fill-opacity:1;stroke-width:0.834873;stroke-linecap:square;-inkscape-stroke:none;paint-order:markers stroke fill;filter:url(#filter1064)"
         inkscape:label="LEFT"
         d="m 77.740697,105.55706 -3.585246,2.04878 3.585246,2.04926 z m -0.253042,0.28946 v 3.51911 l -3.079161,-1.75979 z"
         transform="matrix(1.0782842,0,0,1.0782842,-5.9455312,-8.423842)" /><path
         id="path5-2-7-7-4-4"
         style="color:#000000;mix-blend-mode:normal;fill:#191a1c;fill-opacity:1;stroke-width:0.834873;stroke-linecap:square;-inkscape-stroke:none;paint-order:markers stroke fill;filter:url(#filter1064-5)"
         inkscape:label="UP"
         d="m 77.740697,105.55706 -3.585246,2.04878 3.585246,2.04926 z m -0.253042,0.28946 v 3.51911 l -3.079161,-1.75979 z"
         transform="matrix(0,1.0782842,-1.0782842,0,198.54428,19.146003)" /><path
         id="rect1064"
         style="fill:url(#linearGradient1065);fill-opacity:1;stroke:none;stroke-width:0.182388;stroke-linecap:square;stroke-linejoin:bevel;stroke-dashoffset:37.3185;stroke-opacity:1;paint-order:markers stroke fill"
         d="m 74.267942,104.86336 c -0.190965,0 -0.344288,0.15811 -0.344288,0.35502 v 0.87953 c 0,0.19692 0.153323,0.35554 0.344288,0.35554 h 1.656293 l 1.881308,-1.10846 v 1.10846 h 1.079973 c 0.190965,0 0.34479,-0.15862 0.34479,-0.35554 v -0.87953 c 0,-0.19691 -0.153825,-0.35502 -0.34479,-0.35502 z" /><path
         id="rect1064-4"
         style="fill:url(#linearGradient1066);fill-opacity:1;stroke:none;stroke-width:0.185208;stroke-linecap:square;stroke-linejoin:bevel;stroke-dashoffset:37.3185;stroke-opacity:1;paint-order:markers stroke fill"
         inkscape:label="Dpad_hlight"
         d="m 87.29047,172.86431 c -0.196915,0 -0.355533,0.15862 -0.355533,0.35554 v 0.87953 c 0,0.19692 0.158618,0.35553 0.355533,0.35553 h 1.580782 l 0.799952,-1.40043 0.799951,1.40043 h 1.580782 c 0.196915,0 0.355534,-0.15861 0.355534,-0.35553 v -0.87953 c 0,-0.19692 -0.158619,-0.35554 -0.355534,-0.35554 z"
         transform="translate(-7.1568604,-73.964408)" /><path
         id="rect1064-4-2"
         style="fill:url(#linearGradient1067);fill-opacity:1;stroke:none;stroke-width:0.182956;stroke-linecap:square;stroke-linejoin:bevel;stroke-dashoffset:37.3185;stroke-opacity:1;paint-order:markers stroke fill"
         inkscape:label="Dpad_hlight"
         d="m 86.16289,104.86336 c -0.192155,0 -0.34694,0.15811 -0.34694,0.35502 v 0.87953 c 0,0.19692 0.154785,0.35554 0.34694,0.35554 h 0.994929 v -1.15807 l 1.977756,1.15807 h 1.673679 c 0.192155,0 0.346939,-0.15862 0.346939,-0.35554 v -0.87953 c 0,-0.19691 -0.154784,-0.35502 -0.346939,-0.35502 z" /><path
         id="rect1064-4-2-4"
         style="fill:url(#linearGradient1068);fill-opacity:1;stroke:none;stroke-width:0.185208;stroke-linecap:square;stroke-linejoin:bevel;stroke-dashoffset:37.3185;stroke-opacity:1;paint-order:markers stroke fill"
         inkscape:label="Dpad_hlight"
         d="m 80.13361,110.91984 c -0.196915,0 -0.355533,0.15862 -0.355533,0.35554 v 0.87953 c 0,0.19691 0.158618,0.35553 0.355533,0.35553 h 0.556039 l -0.450619,-0.78858 h 4.550627 l -0.450619,0.78858 h 0.556039 c 0.196915,0 0.355534,-0.15862 0.355534,-0.35553 v -0.87953 c 0,-0.19692 -0.158619,-0.35554 -0.355534,-0.35554 z" /><path
         id="path5-2-7-7-4-4-9"
         style="color:#000000;mix-blend-mode:normal;fill:#191a1c;fill-opacity:1;stroke-width:0.834873;stroke-linecap:square;-inkscape-stroke:none;paint-order:markers stroke fill;filter:url(#filter1064-5-6)"
         inkscape:label="DOWN"
         d="m 77.740697,105.55706 -3.585246,2.04878 3.585246,2.04926 z m -0.253042,0.28946 v 3.51911 l -3.079161,-1.75979 z"
         transform="matrix(0,-1.0782842,1.0782842,0,-33.515596,195.51535)" /><path
         id="path5-2-7-7-4-0"
         style="color:#000000;mix-blend-mode:normal;fill:#191a1c;fill-opacity:1;stroke-width:0.834873;stroke-linecap:square;-inkscape-stroke:none;paint-order:markers stroke fill;filter:url(#filter1064-2)"
         inkscape:label="RIGHT"
         d="m 77.740697,105.55706 -3.585246,2.04878 3.585246,2.04926 z m -0.253042,0.28946 v 3.51911 l -3.079161,-1.75979 z"
         transform="matrix(-1.0782842,0,0,1.0782842,170.97424,-8.423842)" /></g><circle
       style="fill:url(#radialGradient2-1-8);stroke:none;stroke-width:0.184499;stroke-linecap:square;stroke-dasharray:none;stroke-opacity:1;paint-order:markers stroke fill"
       id="path14-6-3-2-3-4"
       cx="119.14494"
       cy="89.637978"
       r="3.770962"
       inkscape:label="FRONTVIEW_LEFTSTICK" /><circle
       style="fill:url(#radialGradient2-1-8-3);stroke:none;stroke-width:0.184499;stroke-linecap:square;stroke-dasharray:none;stroke-opacity:1;paint-order:markers stroke fill"
       id="path14-6-3-2-3-4-5"
       cx="127.74849"
       cy="82.03672"
       r="3.770962"
       inkscape:label="FRONTVIEW_LEFTSTICK" /><circle
       style="fill:url(#radialGradient2-1-8-3-9);stroke:none;stroke-width:0.184499;stroke-linecap:square;stroke-dasharray:none;stroke-opacity:1;paint-order:markers stroke fill"
       id="path14-6-3-2-3-4-5-7"
       cx="127.74849"
       cy="97.239235"
       r="3.770962"
       inkscape:label="FRONTVIEW_LEFTSTICK" /><circle
       style="fill:url(#radialGradient2-1-8-3-5);stroke:none;stroke-width:0.184499;stroke-linecap:square;stroke-dasharray:none;stroke-opacity:1;paint-order:markers stroke fill"
       id="path14-6-3-2-3-4-5-9"
       cx="136.35202"
       cy="89.637978"
       r="3.770962"
       inkscape:label="FRONTVIEW_LEFTSTICK" /><rect
       style="fill:url(#linearGradient1549);fill-opacity:1;stroke:none;stroke-width:1.52476;stroke-linecap:square;stroke-dasharray:none;stroke-opacity:1;paint-order:markers stroke fill"
       id="rect14-8"
       width="6.1367831"
       height="2.5916581"
       x="85.376274"
       y="88.630577"
       rx="0.87785363"
       ry="0.5998556"
       inkscape:label="FRONTVIEW_SELECT" /><rect
       style="fill:url(#linearGradient11);fill-opacity:1;stroke:none;stroke-width:1.24663;stroke-linecap:square;stroke-dasharray:none;stroke-opacity:1;paint-order:markers stroke fill"
       id="rect14-8-2"
       width="4.1021938"
       height="2.5916581"
       x="95.46936"
       y="95.683334"
       rx="0.58680999"
       ry="0.5998556"
       inkscape:label="FRONTVIEW_SELECT" /><rect
       style="fill:url(#linearGradient10);fill-opacity:1;stroke:none;stroke-width:1.52476;stroke-linecap:square;stroke-dasharray:none;stroke-opacity:1;paint-order:markers stroke fill"
       id="rect14-8-3"
       width="6.1367831"
       height="2.5916581"
       x="103.52785"
       y="88.626556"
       rx="0.87785363"
       ry="0.5998556"
       inkscape:label="FRONTVIEW_SELECT" /><path
       id="rect9-9-3"
       style="fill:url(#linearGradient15);fill-opacity:1;stroke:none;stroke-width:0.467187;stroke-linecap:square;stroke-opacity:0.352113;paint-order:markers stroke fill"
       d="m 137.7524,70.840222 c -5.89298,-1.239421 -11.78595,-1.374836 -17.67893,-1.581272 -0.89744,-0.03142 -1.68006,0.559896 -1.76183,1.434717 l -0.34667,3.708977 c -0.0818,0.874821 0.57234,1.643495 1.46663,1.723489 l 17.67893,1.581262 c 0.89429,0.07997 1.68008,-0.559895 1.76184,-1.434717 l 0.34668,-3.708976 c 0.0818,-0.874822 -0.58868,-1.538833 -1.46665,-1.72348 z"
       sodipodi:nodetypes="sssssssss"
       inkscape:label="FRONTVIEW_R_HIGHLIGHT" /><path
       id="rect9-2"
       style="fill:url(#linearGradient13);stroke:none;stroke-width:0.468538;stroke-linecap:square;stroke-opacity:0.352113;paint-order:markers stroke fill"
       d="m 57.491925,70.86943 c 5.900567,-1.245 11.801134,-1.38102 17.701702,-1.58838 0.898606,-0.0316 1.682234,0.56241 1.764108,1.44116 l 0.34712,3.72566 c 0.08187,0.87875 -0.573088,1.65088 -1.468534,1.73124 L 58.13462,77.76748 c -0.895443,0.0803 -1.682236,-0.56241 -1.76411,-1.44117 l -0.347121,-3.72565 c -0.08188,-0.87876 0.589447,-1.54576 1.468536,-1.73123 z"
       sodipodi:nodetypes="sssssssss"
       inkscape:label="FRONTVIEW_L_HIGHLIGHT" /><path
       id="rect9-8-8"
       style="fill:url(#linearGradient23);fill-opacity:1;stroke:none;stroke-width:1.91116;stroke-linecap:square;stroke-dasharray:none;stroke-opacity:1;paint-order:markers stroke fill"
       d="m 78.439842,51.347525 c -1.684294,0.165259 -14.081686,0.77255 -16.868505,0.777532 -0.85432,0.0018 -1.609914,-0.544124 -1.748287,-1.46753 l -0.370942,-2.475521 c -0.13841,-0.923388 0.458759,-1.764261 1.304844,-1.874101 l 18.485015,-2.399681 c 0.846077,-0.109831 2.015389,0.588783 1.748281,1.46753 l -1.245561,4.09768 c -0.267112,0.878747 -0.455675,1.790782 -1.304845,1.874091 z"
       sodipodi:nodetypes="sssssssss"
       inkscape:label="TOPVIEW_L_HIGHLIGHT" /><path
       id="rect9-8-5-4"
       style="fill:url(#linearGradient18);fill-opacity:1;stroke:none;stroke-width:1.56963;stroke-linecap:square;stroke-dasharray:none;stroke-opacity:1;paint-order:markers stroke fill"
       d="m 80.176421,32.793314 c -0.468664,0.0454 -14.343357,1.564573 -15.795261,1.70512 -2.121264,0.205359 -4.958928,2.937509 -4.840729,4.065251 0.1182,1.127736 0.287624,1.473317 0.287624,1.473317 0.139064,0.917934 0.847544,1.564301 1.547367,1.475324 l 15.375191,-1.954899 c 0.699815,-0.08899 2.46928,-1.064603 2.995867,-2.282922 l 1.285475,-2.974085 c 0.355121,-0.82162 -0.15342,-1.575073 -0.855534,-1.507106 z"
       sodipodi:nodetypes="sszssssss"
       inkscape:transform-center-x="-0.97042416"
       inkscape:transform-center-y="0.58071516"
       inkscape:label="TOPVIEW_Z_LEFT_HIGHLIGHT" /><path
       id="rect9-8-8-7"
       style="fill:url(#linearGradient24);fill-opacity:1;stroke:none;stroke-width:1.88931;stroke-linecap:square;stroke-dasharray:none;stroke-opacity:1;paint-order:markers stroke fill"
       d="m 117.26313,51.243662 c 1.69888,0.160115 14.20368,0.748501 17.01463,0.753328 0.86172,0.0017 1.62387,-0.527186 1.76344,-1.421847 l 0.37416,-2.398462 c 0.1396,-0.894644 -0.46274,-1.709342 -1.31616,-1.815763 l -18.64514,-2.324982 c -0.85342,-0.106412 -2.03285,0.570455 -1.76342,1.421848 l 1.25634,3.970125 c 0.26943,0.851393 0.45963,1.735037 1.31615,1.815753 z"
       sodipodi:nodetypes="sssssssss"
       inkscape:label="TOPVIEW_R_HIGHLIGHT" /><path
       id="rect9-8-5-4-5"
       style="fill:url(#linearGradient18-0);fill-opacity:1;stroke:none;stroke-width:1.5732;stroke-linecap:square;stroke-dasharray:none;stroke-opacity:1;paint-order:markers stroke fill"
       d="m 115.71498,32.838987 c 0.46974,0.04549 14.37604,1.568136 15.83124,1.709004 2.12609,0.205826 4.97025,2.944198 4.85175,4.07451 -0.11846,1.130302 -0.28827,1.476673 -0.28827,1.476673 -0.13938,0.920023 -0.84948,1.567862 -1.55089,1.478681 l -15.4102,-1.959348 c -0.70142,-0.0892 -2.4749,-1.067029 -3.00269,-2.288122 l -1.28841,-2.98086 c -0.35593,-0.823492 0.15376,-1.578659 0.85747,-1.510538 z"
       sodipodi:nodetypes="sszssssss"
       inkscape:transform-center-x="0.97264255"
       inkscape:transform-center-y="0.58203758"
       inkscape:label="TOPVIEW_Z_RIGHT_HIGHLIGHT" /><path
       id="rect7-7-9-4"
       style="fill:url(#linearGradient37);stroke:none;stroke-width:0.238237;stroke-linecap:square;stroke-dasharray:none;stroke-opacity:1;paint-order:markers stroke fill"
       inkscape:label="TOPVIEW_BUTTONPAD_SHADE"
       d="m 140.25087,54.587822 c -2.1771,0.462849 -5.11079,0.7512 -8.47132,0.930175 l 0.0145,0.412895 c 0.0131,0.37669 0.57252,0.661197 1.25471,0.637687 l 6.03942,-0.208256 c 0.6822,-0.0235 1.22117,-0.345747 1.2082,-0.722436 l -0.0346,-1.000456 c -5.9e-4,-0.01713 -0.008,-0.03288 -0.0109,-0.04961 z m -42.363822,0.625285 c -0.883872,0 -1.892625,0.01349 -2.836519,0.02015 v 0.244947 c 0,0.667869 0.350122,1.205611 0.785482,1.205611 h 3.854545 c 0.435364,0 0.785484,-0.537742 0.785484,-1.205611 V 55.23119 C 99.618875,55.22559 98.693788,55.2131 97.887048,55.2131 Z m -4.628141,0.03256 c -0.498866,0.005 -0.939669,0.0044 -1.450041,0.01033 -2.139339,0.025 -4.373315,0.05718 -6.644555,0.08578 -2.271241,0.02865 -4.580177,0.14517 -6.869865,0.24753 -0.643328,0.02875 -1.278665,0.04908 -1.917713,0.07338 1.29e-4,0.06538 -0.001,0.107251 -0.001,0.180351 v 0.281637 c 0,0.754809 0.489198,1.40659 1.094507,1.362191 l 3.679362,-0.269751 h 0.494543 c 0.121209,0.308219 0.547358,0.535367 1.05885,0.535367 h 3.922758 c 0.511491,0 0.93764,-0.227148 1.05885,-0.535367 h 0.822689 l 3.678845,0.269751 c 0.606354,0 1.094507,-0.607382 1.094507,-1.362191 v -0.281637 c 0,-0.249815 -0.0079,-0.435154 -0.0217,-0.597379 z m 10.991063,0.01395 v 0.548804 c 0,0.45837 0.48859,0.82734 1.09554,0.82734 h 5.46788 c 0.60695,0 1.09554,-0.36897 1.09554,-0.82734 v -0.430465 c -0.43273,-0.01104 -0.86873,-0.03075 -1.29914,-0.03617 -2.17391,-0.02747 -4.30452,-0.05776 -6.35982,-0.08217 z m 9.49709,0.170016 c -0.007,0.0249 -0.0227,0.04277 -0.0227,0.07286 v 2.722314 h -2.94245 c -0.40062,0 -0.72399,0.340221 -0.72399,0.763261 v 0.946195 c 0,0.42303 0.4717,1.655713 1.73995,1.655713 h 11.26081 c 1.26825,0 1.73943,-1.232683 1.73943,-1.655713 v -0.946195 c 0,-0.42304 -0.32286,-0.763261 -0.72347,-0.763261 h -3.40341 v -1.229899 l 0.87281,-0.02997 c 0.68219,-0.0235 1.22119,-0.345747 1.2082,-0.722437 l -0.0176,-0.504879 c -1.72645,-0.01516 -3.47955,-0.06944 -5.2555,-0.148828 -1.14484,-0.05118 -2.29433,-0.105395 -3.44165,-0.150895 -0.0972,-0.0038 -0.19324,-0.0046 -0.29042,-0.0083 z m 17.76326,0.103353 c -2.26907,0.115934 -4.70847,0.187791 -7.27604,0.219624 -0.40368,0.005 -0.82093,-0.01022 -1.22938,-0.0124 l 0.0212,0.6165 c 0.0131,0.3767 0.57251,0.661197 1.25471,0.637687 l 6.03942,-0.207739 c 0.6822,-0.0235 1.22118,-0.346254 1.2082,-0.722953 z m -66.325152,0.05064 v 1.862935 h -3.085599 c -0.417752,0 -0.754476,0.355194 -0.754476,0.796334 v 0.986503 c 0,0.441139 0.491347,1.727026 1.813843,1.727026 h 11.742435 c 1.322495,0 1.813843,-1.285887 1.813843,-1.727026 v -0.986503 c 0,-0.44114 -0.336724,-0.796334 -0.754476,-0.796334 h -3.56619 v -1.702222 c -0.283019,1.15e-4 -0.574073,0.01175 -0.854729,0.0083 -2.215609,-0.02746 -4.352046,-0.08062 -6.354651,-0.168981 z" /><g
       id="g2"
       style="display:inline"
       inkscape:label="Base_Shade"
       transform="translate(0,5.4316488)"><g
         id="g51"
         style="display:inline"
         inkscape:label="TopButtonShade"
         transform="translate(-7.1568604,-73.96441)"><path
           style="mix-blend-mode:normal;fill:#232629;fill-opacity:0.660714;stroke:none;stroke-width:0.265;stroke-linecap:square;stroke-dasharray:none;stroke-opacity:1;paint-order:markers stroke fill;filter:url(#filter51)"
           d="m 123.19884,112.41382 c -0.86887,-0.0114 -1.93557,0.70872 -1.67173,1.5999 l 1.31258,4.43229 c 0.28144,0.95058 0.47988,1.93766 1.3746,2.02778 1.77464,0.17877 14.83729,0.83538 17.77359,0.84077 0.90015,0.002 1.69646,-0.5886 1.84226,-1.5875 l 0.39068,-2.67787 c 0.14583,-0.99888 -0.48313,-1.90844 -1.3746,-2.02726 l -19.47684,-2.59571 c -0.0557,-0.007 -0.11262,-0.0116 -0.17054,-0.0124 z"
           id="path40"
           inkscape:label="shadow" /><path
           style="mix-blend-mode:normal;fill:#232629;fill-opacity:0.660714;stroke:none;stroke-width:0.265;stroke-linecap:square;stroke-dasharray:none;stroke-opacity:1;paint-order:markers stroke fill;filter:url(#filter52)"
           d="m 87.21654,112.41382 c -0.05792,7.6e-4 -0.114816,0.005 -0.170532,0.0124 l -19.476847,2.59571 c -0.891472,0.11882 -1.520428,1.02838 -1.374594,2.02726 l 0.390674,2.67787 c 0.145796,0.9989 0.942119,1.5895 1.842265,1.5875 2.936307,-0.005 15.998951,-0.662 17.773592,-0.84077 0.894721,-0.0901 1.093153,-1.0772 1.374593,-2.02778 l 1.312582,-4.43229 c 0.263847,-0.89118 -0.802866,-1.61129 -1.671733,-1.5999 z"
           id="path39"
           inkscape:label="shadow" /><path
           style="mix-blend-mode:normal;fill:#232629;fill-opacity:0.660714;stroke:none;stroke-width:0.265;stroke-linecap:square;stroke-dasharray:none;stroke-opacity:1;paint-order:markers stroke fill;filter:url(#filter53)"
           d="m 91.386828,100.23006 c -0.05378,-0.003 -0.108927,-10e-4 -0.164848,0.005 -0.597234,0.0602 -18.278274,2.07449 -20.128487,2.26085 -2.7032,0.2723 -6.319241,3.89502 -6.168615,5.39037 0.150626,1.49534 0.366902,1.95337 0.366902,1.95337 0.177214,1.21714 1.079647,2.07445 1.971456,1.95647 l 19.593119,-2.59209 c 0.891799,-0.118 3.146806,-1.41176 3.817855,-3.02721 l 1.638143,-3.94343 c 0.424261,-1.02135 -0.118752,-1.96349 -0.925525,-2.00298 z"
           id="path38"
           inkscape:label="shadow"
           transform="matrix(0.82707771,0,0,0.82707771,12.494644,18.32387)" /><path
           style="mix-blend-mode:normal;fill:#232629;fill-opacity:0.660714;stroke:none;stroke-width:0.265;stroke-linecap:square;stroke-dasharray:none;stroke-opacity:1;paint-order:markers stroke fill;filter:url(#filter54)"
           d="m 119.02856,100.22955 v 5.1e-4 c -0.80677,0.0395 -1.3498,0.98163 -0.92553,2.00298 l 1.63814,3.94343 c 0.67105,1.61545 2.92606,2.90921 3.81786,3.02721 l 19.59312,2.59209 c 0.89182,0.11798 1.79424,-0.73933 1.97145,-1.95647 0,0 0.21628,-0.45803 0.36691,-1.95337 0.15062,-1.49535 -3.46543,-5.11807 -6.16862,-5.39037 -1.85022,-0.18636 -19.53126,-2.20065 -20.12849,-2.26085 -0.0559,-0.006 -0.11105,-0.007 -0.16484,-0.005 z"
           id="rect9-8-1"
           inkscape:label="shadow"
           transform="matrix(0.82896145,0,0,0.82896145,23.66908,18.124227)" /></g><path
         id="path7"
         style="fill:url(#radialGradient1009);stroke-width:3.23908;stroke-linecap:square;stroke-dasharray:none;stroke-opacity:0.211886;paint-order:markers stroke fill"
         inkscape:label="middle"
         d="m 97.887048,21.921143 c -3.643961,0.04847 -8.587702,0.333486 -13.420886,0.636653 4.612595,0 4.517887,25.341434 -1.609721,27.407363 1.127964,0 2.928117,-0.04979 3.344499,-0.05503 2.271237,-0.02856 4.50522,-0.06078 6.644556,-0.08578 1.774472,-0.02065 3.429262,-0.03083 5.041552,-0.03566 1.61229,0.0048 3.267082,0.01501 5.041552,0.03566 2.13934,0.025 4.37332,0.05718 6.64456,0.08578 0.41638,0.0052 2.18496,0.02136 3.2178,0.05079 -6.12762,-2.065929 -6.09562,-27.403121 -1.48303,-27.403121 -4.83317,-0.303167 -9.77692,-0.588183 -13.420882,-0.636653 z"
         sodipodi:nodetypes="cccscccccccc" /><path
         style="fill:url(#radialGradient1012);fill-opacity:0.527985;stroke-width:3.23908;stroke-linecap:square;stroke-dasharray:none;stroke-opacity:0.211886;paint-order:markers stroke fill"
         d="m 60.174813,81.391345 c -2.789305,-0.02889 -6.270982,1.326319 -9.021672,5.130953 -4.401097,6.087421 3.03803,32.440932 8.479069,35.582322 C 55.857638,109.40528 55.356759,98.605289 74.471615,97.309753 72.952596,96.902732 66.452314,84.798295 64.139946,82.70806 63.272807,81.924219 61.848396,81.40868 60.174813,81.391345 Z"
         id="rect10-5-0"
         inkscape:label="left"
         transform="translate(-7.1568604,-73.964408)" /><path
         style="display:inline;fill:url(#radialGradient1012-0);fill-opacity:0.527985;stroke-width:3.23908;stroke-linecap:square;stroke-dasharray:none;stroke-opacity:0.211886;paint-order:markers stroke fill"
         d="m 142.75612,7.4266822 c 2.7893,-0.02889 6.27098,1.326319 9.02167,5.1309528 4.4011,6.087421 -3.03803,32.440932 -8.47907,35.582322 3.77457,-12.69934 4.27545,-23.499331 -14.83941,-24.794867 1.51902,-0.407021 8.01931,-12.511458 10.33167,-14.6016928 0.86714,-0.783841 2.29155,-1.29938 3.96514,-1.316715 z"
         id="rect10-5-0-6"
         inkscape:label="right" /></g></g></svg>
